<?xml version="1.0" standalone="no"?>
<!DOCTYPE svg PUBLIC "-//W3C//DTD SVG 20010904//EN"
 "http://www.w3.org/TR/2001/REC-SVG-20010904/DTD/svg10.dtd">
<svg version="1.0" xmlns="http://www.w3.org/2000/svg"
 width="101.911816pt" height="115.361851pt" viewBox="0 0 101.911816 115.361851"
 preserveAspectRatio="xMidYMid meet">
<metadata>
Created by potrace 1.12, written by Peter Selinger 2001-2015
</metadata>
<g transform="translate(-2.015075,119.361851) scale(0.100000,-0.100000)"
fill="#000000" stroke="none">
<path d="M855 1189 c-11 -4 -34 -8 -50 -8 -17 -1 -40 -8 -52 -16 -12 -8 -30
-14 -40 -13 -42 5 -213 -96 -237 -140 -5 -9 -12 -44 -15 -77 l-6 -60 -19 58
c-13 43 -21 56 -29 48 -8 -8 -7 -28 5 -73 14 -53 14 -59 1 -43 -8 11 -23 37
-33 58 -17 37 -17 37 -35 17 -14 -15 -16 -30 -12 -62 l6 -43 -18 24 -18 24
-23 -20 c-24 -23 -22 -29 26 -100 35 -51 30 -67 -9 -28 -33 33 -81 54 -94 41
-4 -3 7 -23 24 -44 41 -51 53 -76 53 -108 0 -23 -7 -17 -47 47 -31 47 -49 68
-51 57 -2 -9 2 -26 7 -37 19 -35 12 -43 -13 -14 -32 37 -44 22 -25 -30 31 -82
32 -84 12 -58 -10 13 -23 38 -30 55 l-11 31 -1 -30 c-1 -17 11 -48 26 -70 24
-37 25 -39 3 -20 -12 11 -31 34 -41 50 -11 17 -19 24 -19 17 0 -20 19 -54 54
-92 22 -25 18 -23 -16 9 -25 24 -50 41 -56 37 -22 -13 -8 -55 29 -92 45 -44
52 -64 11 -34 -15 11 -42 23 -59 26 -28 5 -33 4 -33 -12 0 -28 11 -40 60 -68
43 -25 43 -26 13 -20 -34 7 -63 -8 -63 -30 0 -6 5 -3 11 7 5 9 14 17 20 17 5
0 2 -12 -8 -27 -10 -17 -11 -23 -3 -15 16 14 46 16 54 4 3 -5 -8 -49 -24 -98
-27 -86 -48 -194 -37 -194 2 0 15 41 27 91 37 155 57 186 111 175 16 -3 28 -2
25 2 -3 5 11 9 31 9 19 1 40 6 46 12 6 6 16 7 27 1 9 -5 22 -5 31 1 7 5 9 9 3
9 -20 0 -11 30 10 30 12 1 35 12 51 25 l30 25 -30 1 c-27 1 -25 2 12 10 73 17
61 34 -45 60 -53 13 -86 25 -74 27 12 2 46 -4 76 -12 60 -18 126 -21 126 -6 0
5 -20 18 -45 29 -25 11 -45 24 -45 30 0 5 -19 14 -42 19 -24 6 -33 10 -20 11
12 1 55 -10 94 -24 86 -30 98 -31 98 -5 0 13 7 20 20 20 19 0 29 25 12 32 -5
2 -26 22 -47 46 l-38 43 51 -7 c39 -5 62 -2 96 12 25 11 46 21 46 24 0 8 -161
50 -188 50 -13 0 -20 4 -17 10 11 17 59 11 123 -15 84 -34 88 -31 17 10 -70
40 -67 46 5 10 27 -14 62 -25 77 -25 l28 1 -30 14 -30 13 28 1 c17 1 50 19 87
49 59 46 59 47 32 53 -31 6 -76 29 -70 34 2 3 17 1 34 -4 61 -16 139 18 222
98 45 44 52 72 27 107 -8 12 -11 24 -8 28 3 3 -24 6 -61 6 -37 0 -65 4 -62 9
8 13 -16 19 -39 10z"/>
</g>
</svg>
