<?xml version="1.0" standalone="no"?>
<!DOCTYPE svg PUBLIC "-//W3C//DTD SVG 20010904//EN"
 "http://www.w3.org/TR/2001/REC-SVG-20010904/DTD/svg10.dtd">
<svg version="1.0" xmlns="http://www.w3.org/2000/svg"
 width="575.443737pt" height="574.817264pt" viewBox="0 0 575.443737 574.817264"
 preserveAspectRatio="xMidYMid meet">
<metadata>
Created by potrace 1.12, written by Peter Selinger 2001-2015
</metadata>
<g transform="translate(-61.862945,611.978295) scale(0.100000,-0.100000)"
fill="#000000" stroke="none">
<path d="M2215 6074 c-16 -24 -44 -53 -61 -63 -18 -11 -51 -47 -74 -81 -27
-39 -52 -65 -71 -72 -16 -5 -45 -32 -66 -61 -21 -29 -50 -63 -66 -77 -15 -14
-35 -41 -45 -60 -9 -19 -30 -41 -45 -48 -15 -8 -32 -24 -37 -37 -5 -13 -17
-28 -26 -33 -9 -5 -41 -38 -70 -73 -48 -56 -54 -68 -54 -107 0 -62 28 -103 92
-135 29 -15 60 -27 68 -27 9 0 45 -29 80 -65 35 -36 70 -65 77 -65 7 0 28 -13
46 -30 19 -16 45 -30 57 -30 12 0 35 -11 51 -25 16 -13 46 -27 65 -31 23 -4
52 -22 81 -50 30 -29 56 -45 81 -49 54 -9 82 -23 82 -40 0 -26 -49 -158 -85
-229 -19 -37 -35 -74 -35 -81 0 -17 -88 -166 -106 -180 -7 -5 -22 -31 -33 -57
-11 -26 -31 -54 -46 -64 -14 -9 -35 -35 -47 -58 -47 -92 -77 -145 -115 -207
-13 -20 -23 -44 -23 -53 0 -9 -12 -29 -27 -44 -15 -15 -45 -67 -66 -117 -57
-132 -80 -159 -242 -290 -33 -26 -70 -63 -83 -82 -12 -18 -41 -42 -64 -54 -23
-12 -71 -52 -107 -89 -36 -37 -100 -95 -141 -128 -98 -79 -140 -119 -174 -165
-15 -21 -45 -49 -67 -63 -22 -13 -85 -68 -140 -122 -133 -128 -160 -187 -160
-350 0 -87 57 -145 208 -213 37 -17 109 -51 158 -75 50 -24 110 -48 135 -53
53 -11 114 -33 184 -66 28 -13 75 -27 104 -31 61 -8 76 -24 87 -93 4 -24 18
-68 31 -97 13 -30 24 -60 24 -67 0 -17 102 -132 185 -209 39 -36 97 -90 130
-121 33 -32 85 -69 115 -84 30 -15 69 -41 85 -58 17 -16 59 -52 94 -80 35 -27
71 -58 80 -69 70 -81 124 -99 273 -90 l104 7 18 -28 c15 -22 23 -26 49 -22 37
6 165 -29 196 -52 15 -12 25 -38 35 -91 8 -41 27 -110 42 -152 l28 -77 -31
-33 c-29 -30 -32 -38 -29 -86 4 -73 11 -78 98 -64 110 17 179 58 218 130 91
167 133 304 154 502 2 19 9 46 14 61 11 28 1 104 -16 121 -6 6 -37 15 -68 19
-104 14 -244 105 -244 160 0 40 -15 53 -56 51 -20 -2 -49 -9 -65 -17 -49 -26
-104 -19 -172 22 -34 20 -71 45 -82 54 -11 9 -54 35 -96 58 -112 61 -115 65
-99 154 7 39 14 90 15 112 4 72 24 183 41 222 16 39 27 118 25 185 -2 57 -23
109 -52 130 -24 18 -32 19 -90 8 -85 -15 -210 -12 -227 4 -11 10 -11 22 -4 52
6 22 16 66 23 99 17 80 42 128 84 160 45 35 75 84 75 124 0 39 38 116 78 159
27 29 36 32 87 32 31 0 69 7 86 15 l29 16 -1 112 c-2 132 13 181 82 271 115
151 131 173 143 202 8 17 43 64 78 105 36 41 73 89 82 108 18 34 160 181 176
181 5 0 22 11 38 25 16 13 62 35 103 49 113 37 204 90 219 126 7 17 21 35 31
40 25 14 123 12 273 -5 92 -10 143 -11 175 -4 34 7 66 6 126 -6 44 -8 95 -15
113 -15 18 0 66 -9 108 -20 41 -11 79 -18 83 -16 4 3 41 -4 82 -15 87 -24 220
-27 404 -8 66 7 146 12 178 10 31 -1 134 12 229 29 243 44 264 40 388 -73 14
-13 48 -40 77 -60 35 -26 54 -47 58 -67 4 -16 11 -32 16 -35 5 -4 9 -13 9 -21
0 -19 58 -104 70 -104 18 0 10 26 -15 56 -14 16 -27 38 -30 49 -12 61 -13 83
-2 94 13 13 47 15 47 3 0 -5 28 -44 63 -88 34 -43 70 -91 80 -106 10 -16 24
-28 32 -28 22 0 18 13 -11 41 -14 13 -37 44 -50 69 -14 25 -36 63 -49 85 -42
68 -31 95 36 95 28 0 104 -34 115 -51 7 -11 79 -49 94 -49 5 0 10 7 10 15 0
18 -67 63 -160 107 -36 17 -68 36 -72 42 -12 18 14 34 70 44 48 9 71 7 158
-13 53 -12 48 12 -8 38 -39 17 -79 25 -149 30 -155 10 -183 33 -114 94 19 17
35 39 35 48 0 9 -3 15 -7 13 -5 -2 -21 -10 -36 -18 -24 -12 -37 -12 -85 0 -31
7 -77 11 -102 10 -25 -2 -74 -4 -110 -3 -36 1 -135 0 -220 -1 -309 -2 -397 0
-535 13 -126 11 -150 11 -243 -5 -118 -20 -187 -11 -232 30 -45 41 -188 106
-335 150 -33 10 -69 23 -80 29 -11 6 -49 26 -85 45 -36 19 -74 43 -85 52 -11
10 -39 24 -62 32 -24 7 -47 22 -54 35 -7 13 -15 23 -19 23 -4 0 -23 11 -43 25
-30 20 -45 23 -84 19 -63 -7 -119 24 -108 59 10 28 10 53 0 153 -7 75 -11 84
-46 124 -22 25 -39 54 -39 67 0 30 21 72 49 97 24 21 71 167 71 218 0 19 -7
43 -15 54 -8 10 -15 29 -15 41 0 11 -11 45 -25 75 -30 64 -31 79 -6 109 14 18
17 28 9 42 -8 16 -17 18 -51 13 -40 -6 -44 -4 -74 33 -18 21 -40 54 -48 73 -9
18 -33 44 -53 57 -35 23 -38 23 -121 11 -107 -15 -182 -41 -223 -75 -26 -22
-38 -25 -87 -23 -49 3 -56 1 -53 -14 4 -27 -16 -58 -38 -58 -11 0 -26 12 -35
30 -23 44 -19 60 15 67 45 8 37 27 -27 64 -105 61 -107 61 -228 51 -63 -5
-120 -6 -133 -1 -13 5 -53 9 -90 9 l-67 0 -30 -46z m297 -135 c11 -6 26 -26
34 -44 8 -19 23 -39 34 -45 24 -13 25 -8 4 31 -31 60 4 78 58 30 18 -16 50
-36 72 -45 36 -15 38 -18 32 -51 -8 -42 21 -211 41 -242 8 -13 19 -41 24 -63
8 -33 5 -48 -12 -81 -19 -39 -20 -42 -4 -76 15 -31 15 -39 3 -72 -14 -36 -15
-36 -75 -39 -45 -2 -74 2 -104 16 -32 15 -50 17 -78 11 -70 -16 -129 -11 -179
17 -76 43 -229 94 -282 94 -59 0 -79 18 -61 56 6 14 11 34 11 45 0 39 102 220
159 283 20 21 48 46 64 56 15 9 47 36 72 59 25 23 58 49 73 57 32 17 85 18
114 3z"/>
</g>
</svg>
