<?xml version="1.0" standalone="no"?>
<!DOCTYPE svg PUBLIC "-//W3C//DTD SVG 20010904//EN"
 "http://www.w3.org/TR/2001/REC-SVG-20010904/DTD/svg10.dtd">
<svg version="1.0" xmlns="http://www.w3.org/2000/svg"
 width="548.202009pt" height="619.141425pt" viewBox="0 0 548.202009 619.141425"
 preserveAspectRatio="xMidYMid meet">
<metadata>
Created by potrace 1.12, written by Peter Selinger 2001-2015
</metadata>
<g transform="translate(-0.304219,619.805132) scale(0.100000,-0.100000)"
fill="#000000" stroke="none">
<path d="M1147 6194 c-4 -5 -24 -7 -43 -6 -22 2 -50 -5 -71 -18 -19 -11 -44
-20 -56 -20 -34 0 -60 -23 -87 -76 -22 -43 -25 -60 -23 -143 1 -61 9 -117 23
-162 20 -67 20 -73 6 -177 -9 -59 -22 -132 -31 -162 -44 -164 -58 -222 -65
-285 -13 -105 -40 -204 -59 -214 -9 -5 -39 -11 -68 -15 -104 -13 -197 -50
-300 -118 -113 -75 -202 -195 -240 -321 -19 -63 -20 -177 -3 -246 16 -69 70
-162 112 -195 38 -29 50 -26 21 7 -38 41 -81 131 -97 205 -15 68 -15 78 3 167
11 52 30 112 42 133 60 97 176 191 297 241 86 35 181 65 187 59 3 -3 -4 -16
-15 -31 -24 -30 -25 -44 -4 -107 15 -45 15 -53 0 -96 -27 -80 -19 -122 40
-200 13 -17 24 -38 24 -46 0 -9 -27 -51 -61 -94 -101 -131 -143 -238 -155
-391 -11 -160 45 -328 142 -425 57 -57 77 -63 37 -10 -47 60 -101 174 -119
248 -31 133 0 347 61 414 8 9 15 20 15 25 0 22 113 155 132 155 3 0 9 -8 12
-17 3 -10 19 -27 36 -38 16 -11 30 -23 30 -28 0 -4 -14 -29 -31 -55 -17 -26
-46 -71 -65 -101 -53 -82 -69 -142 -69 -251 1 -83 4 -102 27 -146 47 -89 151
-166 277 -203 84 -26 201 -38 201 -22 0 6 -8 11 -18 11 -28 0 -180 47 -230 72
-66 31 -107 71 -133 130 -20 45 -24 69 -24 159 l0 106 47 94 c26 52 64 112 84
134 l36 40 -6 -40 c-33 -198 -1 -304 133 -435 157 -155 211 -233 211 -304 0
-107 -41 -162 -143 -196 -41 -13 -226 -10 -259 5 -12 4 -18 3 -18 -4 0 -21 92
-54 162 -59 86 -6 185 13 273 51 56 25 82 31 130 29 104 -3 181 32 260 119 70
78 115 219 100 317 -3 23 -4 42 0 42 11 0 90 -42 108 -58 39 -34 4 -160 -67
-239 -24 -26 -67 -61 -95 -78 -78 -46 -60 -65 22 -24 90 46 159 124 183 206 8
29 19 53 24 53 10 0 64 -88 103 -165 24 -49 106 -265 112 -296 9 -43 40 -96
75 -129 34 -31 39 -41 34 -66 -5 -26 1 -36 50 -82 31 -30 59 -66 62 -80 4 -15
14 -35 23 -45 14 -17 13 -27 -23 -130 -44 -126 -55 -217 -36 -298 15 -64 50
-130 85 -157 l25 -20 -10 -140 c-5 -77 -13 -147 -16 -156 -4 -9 -26 -30 -50
-47 -49 -33 -51 -40 -29 -94 l16 -36 -43 -41 c-24 -22 -53 -50 -66 -62 -12
-11 -20 -27 -17 -33 3 -7 7 -19 10 -25 3 -7 -10 -28 -28 -46 -35 -37 -157
-112 -181 -112 -44 0 -277 -79 -381 -129 -110 -53 -151 -79 -258 -164 l-37
-31 -41 23 c-50 29 -85 24 -154 -23 -50 -34 -151 -127 -193 -178 -20 -26 -25
-27 -81 -22 l-59 7 -11 -36 c-13 -39 -26 -47 -77 -47 -54 0 -92 -24 -99 -64
-6 -29 -12 -35 -41 -40 -18 -4 -46 -17 -61 -30 -53 -44 -97 -59 -212 -72 -104
-12 -121 -17 -181 -54 -92 -54 -165 -136 -186 -207 -15 -51 -15 -58 1 -99 44
-115 178 -150 358 -94 90 29 263 38 304 16 40 -20 113 -21 139 -2 14 11 36 14
91 9 81 -7 98 1 108 47 6 28 7 28 40 14 19 -8 47 -14 62 -14 47 0 115 55 147
118 14 27 22 33 39 28 91 -26 168 -37 220 -31 75 8 218 49 276 80 26 13 80 40
121 61 41 20 95 51 120 67 61 42 222 169 240 191 8 10 41 36 75 59 255 172
480 374 745 667 188 208 372 365 526 446 154 81 353 115 557 96 232 -22 402
-79 448 -149 16 -24 35 -40 57 -45 36 -10 37 -12 13 -108 -7 -25 -20 -90 -31
-144 -21 -109 -18 -124 28 -153 15 -9 29 -18 31 -20 3 -2 -6 -14 -18 -27 -13
-13 -25 -43 -28 -66 -4 -30 -12 -44 -27 -50 -12 -4 -34 -22 -51 -39 -57 -61
-45 -185 42 -410 l36 -93 -7 -117 c-4 -85 -2 -141 10 -211 10 -61 13 -119 9
-162 -7 -74 0 -84 60 -89 96 -7 117 -1 166 50 47 49 77 118 95 222 3 19 21 66
39 104 18 39 39 86 47 105 l15 35 18 -60 c10 -33 21 -75 24 -94 3 -19 12 -36
19 -39 20 -6 15 74 -9 141 l-21 59 31 29 c45 41 111 192 111 255 0 20 13 48
35 78 31 40 35 51 30 83 -11 61 -16 73 -30 73 -29 0 -26 23 5 49 29 24 32 31
28 66 -3 22 -8 48 -12 58 -7 14 -3 17 28 17 23 0 43 7 56 20 18 18 20 33 19
158 0 75 -4 180 -8 232 -5 66 -3 106 5 132 7 20 20 92 28 160 14 110 15 139 2
278 -8 85 -20 187 -25 225 -7 45 -7 93 -1 135 22 150 11 202 -61 284 -81 92
-68 89 -449 98 -184 4 -362 12 -395 17 -123 21 -385 43 -535 45 -116 2 -166 7
-199 19 -24 10 -58 17 -76 17 -47 0 -90 21 -196 93 -111 76 -170 107 -201 107
-38 0 -65 26 -72 70 -4 26 -19 54 -43 81 -33 37 -36 45 -36 98 1 32 5 67 11
77 5 11 12 58 16 106 6 77 4 93 -15 138 -20 46 -21 57 -11 101 26 110 13 179
-47 254 -41 50 -38 70 32 208 60 118 95 157 222 249 199 144 388 248 602 332
100 39 137 44 168 22 58 -40 267 -146 289 -146 18 0 35 21 62 80 15 33 29 50
41 50 10 0 38 14 63 30 32 22 57 30 88 30 30 0 44 5 49 17 8 20 -39 63 -70 63
-39 0 -50 15 -44 56 4 21 4 71 0 112 -6 67 -9 78 -40 108 -18 18 -33 40 -33
47 0 48 -104 65 -143 24 -20 -22 -29 -23 -116 -21 l-95 3 -60 -43 c-54 -37
-164 -92 -226 -111 -112 -35 -172 -43 -430 -60 -124 -8 -238 -18 -254 -21 -16
-3 -47 -23 -70 -43 -23 -21 -61 -43 -85 -50 -25 -7 -83 -30 -129 -52 -46 -21
-88 -37 -92 -34 -4 2 -10 19 -14 36 -17 88 -143 239 -245 294 -28 15 -53 36
-56 45 -9 28 -128 142 -202 193 -74 51 -218 111 -294 122 -35 5 -53 3 -71 -9
-20 -13 -33 -14 -84 -4 -57 10 -64 9 -125 -18 -97 -43 -178 -107 -238 -189
-53 -73 -75 -118 -111 -230 -53 -161 -93 -223 -182 -278 -38 -23 -57 -21 -80
9 -12 14 -31 30 -44 34 -26 10 -30 33 -14 75 5 14 14 94 20 178 10 159 28 277
49 315 6 12 34 33 61 47 60 30 71 47 104 149 32 97 33 144 4 181 -16 21 -21
39 -19 72 2 36 -2 48 -27 73 -17 17 -38 30 -48 30 -9 0 -22 7 -28 15 -13 17
-67 30 -79 19z m1534 -979 c51 -52 119 -155 119 -182 0 -7 -9 -13 -21 -13 -15
0 -25 -11 -36 -40 -22 -55 -39 -52 -35 8 4 58 -35 179 -73 223 -25 30 -33 59
-17 59 5 0 33 -25 63 -55z m-41 -97 c30 -71 38 -169 16 -202 -9 -14 -25 -30
-36 -36 -20 -10 -20 -8 -20 140 0 82 4 150 9 150 5 0 19 -24 31 -52z m-1320
-195 c0 -21 -154 -203 -172 -203 -13 0 -9 102 5 129 8 16 33 31 75 46 35 13
66 26 69 29 9 8 23 7 23 -1z m-101 -298 c-18 -25 -38 -45 -46 -45 -7 0 -13 2
-13 5 0 4 83 84 88 85 2 0 -11 -20 -29 -45z m212 -838 c77 -113 100 -168 106
-254 5 -64 2 -79 -21 -126 -22 -46 -113 -153 -122 -145 -1 2 12 32 29 68 27
53 32 75 31 130 0 59 -11 112 -34 165 -24 56 -69 212 -70 242 0 27 28 -1 81
-80z m199 9 l84 -41 13 -55 c17 -75 16 -119 -4 -197 -32 -128 -107 -218 -204
-247 -75 -23 -87 -20 -43 10 186 124 202 285 52 523 -15 25 -28 49 -28 54 0
12 34 0 130 -47z"/>
</g>
</svg>
