<?xml version="1.0" standalone="no"?>
<!DOCTYPE svg PUBLIC "-//W3C//DTD SVG 20010904//EN"
 "http://www.w3.org/TR/2001/REC-SVG-20010904/DTD/svg10.dtd">
<svg version="1.0" xmlns="http://www.w3.org/2000/svg"
 width="561.957292pt" height="420.837281pt" viewBox="0 0 561.957292 420.837281"
 preserveAspectRatio="xMidYMid meet">
<metadata>
Created by potrace 1.12, written by Peter Selinger 2001-2015
</metadata>
<g transform="translate(-137.042708,420.837281) scale(0.100000,-0.100000)"
fill="#000000" stroke="none">
<path d="M2881 4170 c-170 -83 -283 -195 -370 -367 -78 -155 -109 -328 -136
-743 -9 -135 -21 -279 -26 -320 -58 -431 -91 -553 -190 -687 -48 -64 -61 -71
-159 -89 -98 -17 -271 -96 -332 -153 -25 -22 -56 -62 -70 -88 -88 -161 -177
-548 -178 -769 0 -93 -23 -274 -40 -320 -15 -37 -12 -86 5 -111 11 -15 16 -57
19 -145 3 -68 6 -149 8 -181 3 -49 0 -61 -18 -78 -17 -15 -22 -32 -22 -70 l0
-49 1603 0 1602 0 6 107 c4 58 7 196 7 305 l0 200 34 41 c19 23 41 59 50 80
23 56 53 49 86 -21 30 -62 60 -89 110 -98 19 -3 54 -16 78 -27 36 -17 47 -19
63 -9 24 15 63 7 109 -25 19 -12 40 -23 47 -23 16 0 91 -39 99 -51 3 -5 16 -9
30 -9 14 0 40 -11 58 -25 18 -14 40 -25 48 -25 9 0 35 -7 58 -15 38 -13 45
-13 71 2 27 16 33 16 96 0 119 -29 241 -48 270 -41 35 8 85 54 128 120 41 61
46 66 110 89 56 20 136 63 147 80 4 5 5 17 1 25 -3 8 -7 71 -8 140 l-2 125 47
120 c60 150 174 488 239 708 28 92 62 195 77 230 14 34 38 95 54 134 21 56 44
90 95 145 37 40 78 93 92 118 14 25 45 78 69 118 24 40 44 84 44 98 0 28 -54
149 -71 160 -6 3 -19 25 -29 49 -10 24 -23 46 -29 49 -7 4 -11 41 -11 89 0 70
4 88 25 122 13 22 25 50 25 62 0 26 -74 90 -127 108 -32 11 -39 20 -58 72 -40
111 -79 147 -186 169 -74 16 -224 9 -333 -16 -51 -11 -99 -18 -198 -26 -95 -8
-103 -8 -298 1 -91 4 -178 6 -193 6 -23 -1 -30 4 -38 29 -9 24 -17 30 -40 30
-16 0 -37 -4 -47 -9 -9 -5 -39 -17 -65 -26 -27 -10 -57 -29 -68 -44 -15 -21
-27 -27 -45 -23 -20 3 -23 9 -18 26 3 11 12 26 20 32 20 16 17 24 -10 24 -18
0 -28 9 -40 38 -29 64 -32 67 -64 64 -23 -2 -32 2 -37 17 -3 12 -4 25 0 30 3
5 1 12 -4 16 -16 9 -44 -42 -39 -70 4 -17 2 -23 -6 -17 -16 12 -87 35 -92 30
-2 -3 6 -15 17 -27 17 -18 19 -25 9 -31 -11 -7 -11 -11 0 -25 13 -15 11 -20
-12 -39 -14 -11 -35 -38 -46 -60 -12 -21 -36 -49 -56 -62 -34 -23 -34 -25 -20
-51 12 -25 12 -28 -1 -31 -8 -2 -15 -12 -15 -22 0 -10 -4 -21 -9 -24 -16 -11
-23 -59 -9 -68 9 -5 10 -10 2 -15 -18 -13 -22 -38 -14 -84 6 -30 5 -46 -3 -51
-9 -5 -4 -22 16 -58 27 -48 28 -54 17 -101 -12 -50 -7 -96 9 -71 6 9 12 7 26
-8 10 -11 15 -20 11 -20 -4 0 5 -15 20 -32 15 -18 36 -33 48 -33 13 0 21 -6
21 -17 0 -9 4 -20 8 -24 4 -4 7 -17 7 -29 0 -13 7 -29 16 -36 14 -11 19 -10
34 9 12 15 21 19 25 11 4 -6 1 -18 -8 -26 -13 -13 -13 -18 0 -45 12 -24 21
-29 47 -28 46 3 48 2 36 -20 -9 -17 -8 -21 7 -26 34 -10 47 -21 63 -49 10 -19
30 -32 63 -43 26 -8 47 -19 47 -23 0 -5 20 -9 45 -9 25 0 45 -4 45 -10 0 -5 9
-10 20 -10 18 0 20 7 20 64 0 59 2 64 20 59 11 -3 20 -9 20 -13 0 -14 57 -22
77 -11 10 6 56 17 103 26 85 16 195 60 259 102 19 13 41 23 50 24 9 0 30 2 46
3 17 2 77 -12 135 -31 58 -19 124 -37 148 -40 l42 -6 0 -77 c0 -112 -24 -222
-80 -368 -102 -267 -214 -487 -329 -647 -27 -38 -73 -102 -100 -142 -28 -39
-60 -74 -71 -78 -11 -3 -33 -22 -49 -41 l-29 -36 -24 24 c-53 49 -93 78 -109
78 -9 0 -22 7 -29 15 -7 8 -22 15 -34 15 -11 0 -64 22 -116 49 -53 26 -116 51
-140 55 -59 9 -113 43 -149 93 -16 22 -40 43 -54 47 -15 3 -29 17 -36 33 -13
37 -46 73 -64 73 -8 0 -20 7 -27 15 -7 8 -19 15 -26 15 -8 0 -14 4 -14 9 0 4
-10 21 -22 37 -13 16 -23 40 -23 54 0 21 -5 26 -32 28 -21 2 -34 10 -38 23 -4
11 -19 27 -33 36 -15 9 -37 26 -50 37 -22 20 -45 34 -160 101 -73 42 -224 105
-253 105 -11 0 -58 7 -105 17 -65 12 -90 14 -109 5 -20 -9 -33 -7 -72 11 l-48
21 2 113 c1 62 -2 136 -6 165 -5 28 -5 84 0 122 10 78 -11 425 -36 601 -7 55
-17 127 -20 160 -18 165 -88 430 -143 540 -78 157 -216 297 -347 352 -69 29
-123 39 -275 49 -84 5 -86 5 -169 -36z m3532 -1124 c31 -10 57 -21 57 -25 0
-4 -30 -39 -67 -77 -55 -58 -77 -73 -115 -82 -51 -13 -138 -14 -178 -3 -23 6
-25 11 -21 57 6 90 41 129 128 144 64 11 126 7 196 -14z m-672 -28 c45 -25 79
-85 79 -139 0 -51 -14 -59 -102 -59 -122 0 -226 48 -264 121 -13 27 -13 30 3
36 10 4 50 19 88 34 87 34 144 36 196 7z"/>
</g>
</svg>
