<?xml version="1.0" standalone="no"?>
<!DOCTYPE svg PUBLIC "-//W3C//DTD SVG 20010904//EN"
 "http://www.w3.org/TR/2001/REC-SVG-20010904/DTD/svg10.dtd">
<svg version="1.0" xmlns="http://www.w3.org/2000/svg"
 width="194.026337pt" height="243.978450pt" viewBox="0 0 194.026337 243.978450"
 preserveAspectRatio="xMidYMid meet">
<metadata>
Created by potrace 1.12, written by Peter Selinger 2001-2015
</metadata>
<g transform="translate(-65.973663,286.534727) scale(0.100000,-0.100000)"
fill="#000000" stroke="none">
<path d="M1513 2863 c-9 -3 -13 -30 -12 -91 2 -123 8 -147 39 -147 27 0 27 -4
22 172 -2 53 -20 77 -49 66z"/>
<path d="M2004 2762 c-19 -12 -101 -186 -96 -204 2 -11 13 -18 26 -18 18 0 31
18 71 99 41 84 47 102 36 115 -15 18 -21 19 -37 8z"/>
<path d="M1006 2704 c-4 -11 15 -50 52 -108 59 -92 83 -109 105 -75 8 12 -4
37 -52 107 -61 92 -91 113 -105 76z"/>
<path d="M1474 2439 c-235 -31 -433 -235 -505 -519 -22 -87 -18 -249 10 -355
l23 -90 -23 -115 c-18 -84 -28 -115 -39 -116 -40 -3 -48 -5 -68 -24 -24 -22
-29 -68 -12 -101 6 -10 32 -30 58 -44 l47 -26 -78 6 c-76 6 -78 5 -107 -24
-38 -38 -39 -74 -2 -110 26 -26 35 -28 212 -45 102 -10 203 -20 225 -22 22 -2
82 -8 133 -14 94 -11 115 -7 141 24 19 22 16 84 -4 106 -17 19 -15 23 56 104
67 76 81 87 154 118 224 94 371 251 451 483 24 69 28 96 28 190 0 92 -4 120
-25 175 -48 127 -155 252 -281 327 -94 57 -271 89 -394 72z m126 -104 c20 -24
4 -32 -71 -37 -58 -5 -87 -13 -155 -48 -45 -23 -88 -39 -93 -35 -34 20 20 71
116 111 69 28 183 33 203 9z"/>
<path d="M2293 2373 c-63 -42 -83 -62 -83 -78 0 -41 28 -35 120 26 75 49 91
63 88 82 -5 37 -38 29 -125 -30z"/>
<path d="M754 2365 c-11 -28 5 -45 67 -75 61 -28 83 -30 92 -6 8 20 -3 30 -67
64 -66 36 -84 39 -92 17z"/>
<path d="M2452 1941 c-83 -6 -106 -18 -95 -48 6 -15 6 -15 108 -14 114 2 135
8 135 36 0 23 -19 36 -48 33 -9 -1 -54 -4 -100 -7z"/>
<path d="M2320 1575 c-18 -22 2 -42 75 -76 51 -25 62 -27 74 -15 21 22 8 41
-52 75 -61 35 -79 38 -97 16z"/>
<path d="M683 844 c-44 -44 -31 -86 78 -256 54 -85 104 -151 117 -158 32 -14
335 7 378 27 95 43 60 178 -46 175 -3 0 -59 -3 -125 -7 l-120 -6 -17 30 -17
31 32 0 c18 0 91 -7 162 -15 72 -8 145 -15 163 -15 69 0 109 88 62 138 -12 12
-24 22 -28 23 -4 0 -14 2 -22 3 -8 2 -49 6 -90 10 -41 4 -160 16 -265 27 -237
24 -231 24 -262 -7z"/>
</g>
</svg>
