<?xml version="1.0" standalone="no"?>
<!DOCTYPE svg PUBLIC "-//W3C//DTD SVG 20010904//EN"
 "http://www.w3.org/TR/2001/REC-SVG-20010904/DTD/svg10.dtd">
<svg version="1.0" xmlns="http://www.w3.org/2000/svg"
 width="312.000000pt" height="250.000000pt" viewBox="0 0 312.000000 250.000000"
 preserveAspectRatio="xMidYMid meet">

<g transform="translate(0.000000,250.000000) scale(0.100000,-0.100000)"
fill="#000000" stroke="none">
<path d="M255 2395 c-5 -47 -11 -65 -21 -65 -8 0 -19 -11 -24 -25 -7 -18 -16
-24 -32 -22 -19 2 -24 -4 -26 -28 -2 -16 -10 -34 -18 -38 -21 -12 -18 -22 30
-116 39 -76 48 -107 75 -256 17 -93 49 -226 71 -295 34 -106 51 -141 112 -234
119 -177 118 -176 129 -278 8 -82 51 -253 81 -327 18 -42 9 -140 -15 -173 -25
-34 -31 -35 -63 -3 -27 27 -54 33 -54 12 0 -7 9 -18 20 -25 12 -7 20 -23 20
-40 0 -15 9 -40 20 -57 26 -39 25 -47 -4 -39 -22 5 -24 3 -19 -17 5 -18 3 -21
-10 -16 -21 8 -22 -3 -2 -29 17 -22 19 -50 5 -59 -5 -3 -33 1 -61 9 -50 15
-51 15 -46 -4 5 -20 -7 -28 -17 -11 -8 12 -55 20 -61 11 -3 -5 -14 -6 -25 -3
-26 7 -26 -12 0 -72 25 -58 25 -73 2 -52 -29 26 -44 22 -30 -8 6 -14 9 -27 6
-30 -10 -10 -37 7 -43 26 -4 10 -12 19 -20 19 -7 0 -21 3 -31 7 -14 5 -16 2
-10 -28 4 -19 8 -46 8 -61 1 -22 6 -28 24 -28 13 0 28 -9 34 -20 10 -18 21
-20 110 -20 117 0 119 2 63 85 -20 31 -34 58 -31 61 8 7 50 -50 77 -103 19
-38 25 -43 55 -43 34 0 34 0 23 30 -17 45 1 49 35 8 l30 -38 669 0 c568 0 669
2 669 14 0 9 7 12 20 9 11 -3 31 2 45 11 34 22 55 20 25 -4 -32 -24 -20 -37
17 -17 15 8 46 24 67 36 22 11 42 18 45 14 3 -3 2 -7 -4 -9 -5 -2 -26 -14 -45
-27 l-35 -22 78 -3 c58 -2 81 1 92 12 22 22 18 29 -14 24 -23 -3 -28 -1 -23
11 5 14 3 14 -11 2 -11 -9 -17 -10 -17 -2 0 6 11 17 25 23 14 6 25 15 25 19 0
12 -46 22 -59 14 -6 -3 -11 1 -11 10 0 13 -6 15 -30 10 -32 -7 -40 5 -16 25
17 13 9 43 -9 36 -7 -2 -22 2 -34 10 -12 8 -26 12 -31 9 -17 -11 -49 5 -43 21
3 9 20 14 49 14 49 0 50 1 28 35 -17 27 -12 59 9 53 6 -3 14 -18 17 -34 3 -16
10 -27 15 -24 11 5 10 11 0 47 -6 18 -4 21 14 16 29 -8 26 13 -5 34 l-26 17
23 9 c20 7 28 3 51 -24 19 -23 32 -30 45 -25 15 6 12 12 -22 41 -22 19 -45 34
-52 35 -6 0 -21 16 -33 36 -19 30 -26 35 -49 29 -36 -9 -39 -14 -17 -31 17
-12 17 -14 4 -14 -9 0 -20 5 -23 10 -3 6 -19 10 -35 10 -22 0 -28 -4 -24 -15
4 -8 1 -15 -6 -15 -19 0 -3 118 30 226 16 51 34 127 39 170 14 94 28 118 49
79 7 -15 16 -25 19 -22 2 3 -1 15 -7 27 -18 34 1 41 50 18 28 -13 75 -22 125
-25 44 -3 102 -14 130 -25 56 -22 226 -57 325 -67 41 -5 79 -16 103 -30 30
-19 37 -20 37 -8 0 9 -14 25 -30 37 -39 28 -30 40 30 40 53 0 80 7 80 21 0 5
-27 9 -61 9 -61 0 -73 13 -21 25 39 8 94 43 87 55 -3 5 -26 1 -56 -10 -54 -22
-69 -24 -69 -12 0 4 23 18 50 29 30 13 50 28 50 37 0 22 -12 20 -68 -8 -69
-34 -106 -41 -126 -20 -15 15 -15 18 -1 40 17 26 20 64 5 64 -5 0 -16 -13 -24
-28 -8 -16 -22 -35 -31 -42 -9 -7 -22 -28 -30 -47 -16 -39 -48 -44 -86 -14
-45 35 -88 51 -136 51 -60 0 -154 25 -168 44 -6 8 -40 30 -76 50 -66 36 -94
71 -79 96 6 10 12 11 22 3 8 -7 28 -8 56 -3 55 10 66 20 14 13 -34 -5 -45 -1
-67 21 -14 14 -30 26 -35 26 -19 0 -22 24 -5 37 18 13 18 13 -1 14 -10 1 -26
0 -34 -1 -10 -1 -9 3 5 14 18 15 19 17 3 26 -10 6 -14 18 -10 32 4 18 2 20
-16 16 -23 -6 -57 22 -36 29 6 2 20 10 30 19 17 13 17 13 -9 3 -29 -13 -51 -4
-27 11 12 8 10 10 -7 10 -13 0 -23 5 -23 10 0 17 -82 90 -117 106 -39 17 -136
18 -166 3 -12 -7 -50 -38 -84 -70 -34 -32 -72 -59 -85 -62 -22 -4 -22 -4 2 -6
23 -2 24 -3 5 -11 -19 -9 -19 -9 3 -16 25 -7 29 -22 7 -30 -8 -4 -12 -10 -9
-15 18 -30 -38 -77 -57 -48 -8 12 -11 11 -19 -1 -7 -11 -5 -16 5 -18 8 -2 15
-10 15 -18 0 -8 7 -14 15 -14 13 0 14 -4 4 -22 -6 -13 -23 -33 -38 -45 -16
-14 -19 -21 -8 -17 26 9 21 -12 -10 -41 -47 -42 -104 -28 -163 42 -31 37 -32
37 -16 6 19 -37 59 -71 95 -79 52 -11 57 -17 21 -25 l-35 -8 35 3 c19 2 44 6
55 10 20 8 20 7 1 -8 -11 -9 -16 -16 -11 -16 16 0 -30 -43 -60 -56 -25 -11
-26 -13 -9 -14 12 0 33 9 47 20 14 11 31 20 38 20 7 0 28 15 47 32 31 31 33
32 24 8 -5 -14 -24 -35 -42 -47 -25 -18 -29 -23 -14 -23 18 -1 18 -1 -1 -18
-12 -9 -24 -25 -28 -35 -6 -15 -1 -13 24 7 56 47 60 33 11 -33 -14 -19 -20
-31 -14 -27 8 5 12 0 12 -14 0 -20 2 -19 24 7 13 15 27 25 31 22 9 -10 -46
-70 -57 -62 -7 3 -8 1 -4 -5 4 -7 -6 -20 -26 -32 -19 -12 -26 -20 -17 -20 22
0 119 71 119 88 0 6 5 12 10 12 20 0 9 -68 -18 -124 -16 -31 -25 -56 -20 -56
4 0 8 4 8 9 0 5 8 12 17 15 19 8 10 -4 -52 -72 -49 -54 -55 -55 -138 -22 -42
17 -80 30 -86 30 -24 0 -9 -29 19 -39 41 -14 42 -54 3 -69 -29 -11 -112 -26
-114 -20 -1 4 -14 276 -25 499 l-7 157 41 26 c23 14 51 39 64 56 12 17 37 39
55 50 22 13 35 30 39 50 4 16 10 30 15 30 5 0 9 6 9 13 0 6 14 28 31 47 86
100 156 201 215 312 36 68 78 134 94 148 15 14 30 33 33 43 4 9 12 17 20 17
16 0 67 75 67 99 0 28 -23 50 -55 53 -33 3 -34 8 -20 86 5 25 4 42 -2 42 -14
0 -30 -39 -47 -113 -28 -120 -55 -175 -130 -265 -40 -48 -98 -109 -129 -135
-31 -26 -75 -77 -98 -112 -31 -48 -58 -75 -103 -104 -33 -21 -74 -53 -90 -70
-32 -33 -62 -42 -52 -15 3 9 6 36 6 60 0 32 4 44 15 44 21 0 19 13 -5 35 -13
12 -20 31 -20 56 0 29 -6 43 -31 63 -38 33 -68 40 -127 32 -57 -8 -85 -26
-118 -76 -23 -35 -26 -47 -21 -91 4 -27 1 -60 -4 -73 -9 -18 -7 -32 10 -64 23
-45 27 -77 11 -87 -6 -4 -35 1 -64 9 -42 12 -62 25 -86 56 -19 24 -54 51 -85
65 -29 14 -57 31 -63 38 -21 25 -131 325 -145 395 l-16 74 34 61 c35 66 50
125 40 157 -5 15 -15 20 -41 20 -32 0 -34 -2 -28 -26 5 -20 3 -25 -7 -22 -8 3
-13 15 -11 31 2 14 -4 39 -12 56 -10 19 -16 57 -16 106 0 67 -2 75 -19 75 -16
0 -20 -10 -26 -65z m1335 -935 c-8 -5 -19 -10 -25 -10 -5 0 -3 5 5 10 8 5 20
10 25 10 6 0 3 -5 -5 -10z m497 -272 c21 -43 23 -58 8 -58 -9 0 -12 6 -9 15 4
8 2 15 -4 15 -5 0 -12 11 -14 25 -6 31 5 33 19 3z m-607 -108 c0 -5 -10 -15
-22 -21 -23 -12 -23 -12 -4 10 21 23 26 26 26 11z m117 -467 c-2 -5 -26 -52
-52 -106 -55 -109 -75 -124 -128 -93 -35 20 -43 16 -27 -13 13 -25 3 -27 -22
-4 -32 29 -22 55 44 108 84 68 199 135 185 108z m-362 -98 c-34 -16 -75 -19
-75 -7 0 17 14 22 59 21 l46 -1 -30 -13z m45 -32 c0 -5 -16 -18 -36 -31 -41
-27 -37 -49 6 -27 16 8 32 19 35 25 8 13 35 13 35 0 0 -5 -7 -10 -15 -10 -8 0
-15 -6 -15 -14 0 -28 12 -46 31 -46 11 0 21 -6 23 -12 2 -7 8 -28 14 -47 13
-39 12 -44 -12 -35 -9 4 -20 19 -23 35 -7 39 -18 45 -87 52 -32 3 -60 7 -62 9
-2 2 -6 22 -10 44 l-6 41 43 10 c56 13 79 15 79 6z m657 -395 c-3 -8 -6 -5 -6
6 -1 11 2 17 5 13 3 -3 4 -12 1 -19z"/>
<path d="M2140 1290 c-9 -6 -10 -10 -3 -10 6 0 15 5 18 10 8 12 4 12 -15 0z"/>
<path d="M2150 482 c0 -11 22 -32 32 -32 5 0 4 9 -2 20 -11 20 -30 28 -30 12z"/>
</g>
</svg>
