<?xml version="1.0" standalone="no"?>
<!DOCTYPE svg PUBLIC "-//W3C//DTD SVG 20010904//EN"
 "http://www.w3.org/TR/2001/REC-SVG-20010904/DTD/svg10.dtd">
<svg version="1.0" xmlns="http://www.w3.org/2000/svg"
 width="533.224768pt" height="592.913121pt" viewBox="0 0 533.224768 592.913121"
 preserveAspectRatio="xMidYMid meet">
<metadata>
Created by potrace 1.12, written by Peter Selinger 2001-2015
</metadata>
<g transform="translate(-24.392056,597.933944) scale(0.100000,-0.100000)"
fill="#000000" stroke="none">
<path d="M1913 5956 c-21 -18 -33 -38 -35 -59 -3 -32 -4 -32 -53 -31 -34 1
-68 11 -103 29 -50 26 -54 27 -124 15 -40 -6 -87 -13 -104 -16 -18 -2 -49 -18
-69 -34 -21 -17 -49 -30 -62 -30 -13 0 -35 -11 -48 -24 -13 -13 -34 -26 -47
-29 -12 -3 -32 -13 -43 -22 -20 -16 -19 -16 5 -11 14 3 35 9 46 12 17 4 23 0
28 -21 9 -35 6 -37 -51 -42 -62 -6 -116 17 -165 70 -48 53 -95 67 -186 57 -37
-4 -77 -12 -88 -18 -24 -13 -58 -50 -74 -80 -19 -38 -4 -36 20 3 42 68 143 99
229 70 51 -17 89 -54 76 -75 -8 -13 -35 -13 -35 0 0 5 -14 17 -31 26 -42 21
-82 13 -166 -37 -37 -21 -75 -38 -84 -37 -9 2 -24 -4 -34 -12 -11 -9 -46 -16
-90 -18 -58 -3 -80 0 -113 17 -50 25 -55 12 -10 -22 42 -31 85 -39 150 -27 28
6 53 8 56 5 3 -2 -3 -16 -12 -31 -21 -31 -13 -44 12 -21 36 33 52 13 52 -68 0
-22 7 -53 15 -69 8 -15 15 -37 15 -47 0 -23 19 -25 35 -2 11 14 19 12 88 -26
43 -23 77 -44 77 -47 0 -3 -10 -9 -22 -14 l-23 -9 22 0 c15 -1 27 -12 39 -37
33 -69 133 -116 207 -96 44 12 78 -3 88 -38 4 -14 7 -55 8 -91 1 -97 25 -166
72 -209 21 -19 39 -40 39 -46 0 -6 -28 -14 -62 -18 -93 -9 -127 -31 -165 -101
-44 -83 -53 -104 -53 -123 0 -27 -11 -37 -78 -72 -76 -40 -158 -126 -168 -175
-3 -18 -3 -60 0 -92 3 -32 9 -117 12 -189 6 -123 5 -134 -18 -191 -14 -33 -54
-106 -89 -162 -79 -127 -83 -133 -104 -201 -27 -83 -109 -222 -144 -242 -43
-24 -68 -65 -53 -89 18 -29 14 -56 -11 -82 -19 -19 -26 -42 -37 -122 -14 -113
-51 -265 -74 -310 -9 -16 -16 -42 -16 -56 0 -15 -12 -67 -26 -115 -47 -165
-54 -199 -68 -339 -34 -332 -28 -919 11 -1035 37 -114 134 -170 294 -170 95 0
176 20 286 69 122 55 296 102 413 113 39 3 35 9 110 -152 25 -56 55 -96 113
-157 109 -114 122 -118 352 -133 l190 -12 36 -34 c64 -62 134 -55 179 18 l19
31 408 3 c224 2 462 -1 528 -7 132 -11 112 -2 273 -119 40 -29 69 -41 120 -50
125 -21 141 -28 157 -65 16 -41 48 -46 86 -16 24 18 24 18 191 -64 127 -63
182 -96 232 -141 152 -135 263 -151 312 -42 31 69 26 158 -14 242 -68 145
-184 272 -355 390 -139 95 -315 258 -355 328 -39 69 -70 98 -167 153 -118 67
-134 70 -195 44 -59 -25 -66 -36 -96 -149 -25 -91 -31 -99 -93 -120 -39 -13
-42 -12 -93 24 -84 57 -284 86 -387 55 -33 -10 -46 -7 -139 30 -59 24 -144 48
-200 58 -53 9 -99 18 -100 19 -2 1 6 29 19 61 32 81 34 232 4 263 -19 18 -26
19 -100 10 -44 -5 -96 -12 -116 -16 l-36 -6 -13 68 c-15 80 -40 136 -72 158
-21 15 -24 15 -41 -3 -10 -10 -35 -51 -55 -92 -34 -68 -40 -74 -77 -83 -22 -5
-53 -18 -68 -29 -16 -11 -32 -16 -36 -11 -4 5 -26 108 -50 229 -23 121 -53
269 -68 328 l-25 108 31 70 c45 100 61 178 61 298 0 122 -15 189 -70 303 -31
63 -40 94 -40 133 0 70 25 140 58 161 15 9 36 25 47 35 11 11 32 28 46 39 17
12 31 36 38 64 12 48 45 94 83 114 13 8 32 29 43 47 10 19 26 37 37 41 10 3
31 24 45 47 41 64 64 87 90 87 13 0 29 10 38 24 9 13 25 26 35 29 11 3 20 13
20 22 0 28 158 194 210 220 25 13 65 39 88 58 22 19 76 47 118 63 75 27 79 27
168 17 57 -7 119 -8 166 -3 41 4 122 13 180 20 68 7 258 10 545 8 242 -2 607
2 810 8 l370 12 58 -39 c32 -21 75 -41 95 -44 60 -10 85 -26 147 -95 67 -74
92 -91 106 -69 17 28 9 57 -34 115 -24 33 -51 65 -60 73 -24 19 -21 44 9 72
25 24 28 24 184 21 154 -3 158 -3 185 21 35 30 26 47 -26 47 -36 0 -39 2 -39
29 l0 29 -61 -5 c-43 -4 -63 -2 -69 7 -5 9 -62 13 -211 15 -323 6 -443 18
-754 75 -447 82 -570 96 -745 81 -174 -14 -276 -14 -435 3 -210 23 -300 43
-408 92 -153 70 -258 95 -417 100 l-135 4 -70 48 c-112 75 -143 107 -162 168
-9 30 -14 57 -10 60 3 4 21 4 40 0 24 -5 51 -24 91 -66 32 -33 62 -60 68 -60
10 0 6 27 -8 64 -5 13 2 16 37 16 48 0 139 -38 178 -73 l23 -22 -6 23 c-12 38
9 25 93 -57 45 -44 81 -76 81 -72 0 16 -62 99 -120 159 -67 70 -74 88 -33 77
38 -9 53 -23 74 -70 17 -36 19 -38 19 -13 0 33 -39 81 -80 98 -35 14 -31 30 8
30 21 0 24 2 12 10 -8 5 -39 10 -68 10 -33 0 -65 7 -83 17 -43 25 -54 67 -11
44 11 -6 22 -7 26 -4 10 10 7 35 -4 28 -30 -19 -81 63 -57 93 27 35 96 -8 162
-101 21 -30 69 -46 136 -47 29 0 47 -9 85 -43 62 -56 84 -67 128 -67 67 0 97
-59 54 -102 -14 -14 -18 -23 -10 -26 7 -2 12 -12 12 -23 0 -10 5 -19 11 -19 6
0 8 -9 4 -20 -9 -28 7 -25 36 6 22 23 24 32 21 106 -3 92 9 101 43 30 14 -30
24 -41 35 -36 38 14 41 7 26 -69 -7 -37 -6 -38 14 -27 12 6 24 9 26 7 8 -8
-58 -65 -88 -78 -16 -6 -28 -15 -28 -20 0 -17 34 -9 88 22 58 32 80 32 41 0
-18 -15 -20 -20 -8 -21 20 0 65 47 78 83 6 16 11 72 11 124 0 116 -19 165 -83
215 -56 43 -58 47 -41 79 24 48 18 67 -33 99 -26 17 -50 30 -54 30 -4 0 -5
-15 -2 -33 4 -28 1 -37 -21 -55 -48 -37 -220 -66 -256 -42 -13 9 -13 12 2 20
9 6 15 17 12 25 -4 10 5 15 38 17 l43 3 -42 23 c-23 12 -48 22 -54 22 -18 0
-75 68 -120 144 -34 56 -40 72 -30 85 6 9 16 28 22 44 15 38 50 35 99 -9 47
-43 53 -30 9 21 -18 20 -47 39 -69 45 -35 10 -40 15 -59 72 -12 34 -21 75 -21
91 0 16 -4 26 -10 22 -5 -3 -10 -26 -10 -51 0 -45 -17 -61 -27 -24 -5 20 -5
20 -30 0 -16 -12 -41 -20 -64 -20 -48 0 -69 27 -69 89 l0 44 -22 -33 c-25 -36
-53 -58 -63 -48 -4 4 -9 25 -12 49 -8 57 -58 119 -97 119 -17 0 -16 -3 11 -19
40 -25 50 -54 28 -87 -14 -21 -22 -25 -43 -19 -15 4 -52 10 -82 13 l-55 7 -6
50 c-7 55 -2 103 14 123 14 18 48 15 102 -9 25 -11 49 -18 52 -16 2 3 -17 20
-43 38 -66 45 -128 51 -171 15z m-973 -276 c17 -10 16 -12 -27 -34 -18 -9 -37
-24 -42 -35 -10 -17 -8 -17 29 1 47 24 60 18 60 -29 0 -19 7 -60 16 -90 9 -30
13 -57 10 -60 -3 -3 -17 2 -30 11 -14 9 -39 16 -55 16 -46 0 -60 9 -83 54 -11
22 -29 51 -40 62 -19 22 -19 22 3 38 13 9 28 16 34 16 6 0 24 14 40 30 29 30
58 37 85 20z m212 -10 c18 -11 45 -20 59 -20 14 0 33 -6 44 -13 17 -13 17 -15
-3 -35 -12 -12 -30 -22 -41 -22 -25 0 -68 35 -86 70 -24 47 -21 49 27 20z
m-55 -432 c36 -22 49 -46 28 -54 -28 -11 -65 6 -85 38 -31 52 -13 57 57 16z
m-77 -3583 c15 -39 37 -89 49 -113 12 -23 19 -47 16 -52 -3 -6 -30 -10 -59
-10 -29 0 -67 -5 -85 -11 -18 -6 -34 -9 -37 -6 -3 3 1 25 10 50 8 25 20 76 27
113 21 126 39 133 79 29z"/>
</g>
</svg>
