<?xml version="1.0" standalone="no"?>
<!DOCTYPE svg PUBLIC "-//W3C//DTD SVG 20010904//EN"
 "http://www.w3.org/TR/2001/REC-SVG-20010904/DTD/svg10.dtd">
<svg version="1.0" xmlns="http://www.w3.org/2000/svg"
 width="410.600294pt" height="615.454298pt" viewBox="0 0 410.600294 615.454298"
 preserveAspectRatio="xMidYMid meet">
<metadata>
Created by potrace 1.12, written by Peter Selinger 2001-2015
</metadata>
<g transform="translate(-2.140850,617.954298) scale(0.100000,-0.100000)"
fill="#000000" stroke="none">
<path d="M2469 6127 c-53 -29 -115 -69 -137 -89 -22 -20 -50 -42 -62 -48 -12
-7 -41 -31 -64 -53 -23 -23 -54 -52 -69 -64 -22 -18 -26 -27 -21 -52 6 -28 3
-32 -26 -44 -21 -9 -38 -27 -49 -53 -24 -52 -69 -104 -90 -104 -22 0 -123 -69
-178 -122 -29 -28 -47 -39 -59 -34 -15 6 -16 19 -12 119 7 156 -10 193 -73
155 -17 -11 -23 -10 -39 10 -13 15 -29 22 -52 22 -18 -1 -40 -1 -48 0 -8 0
-27 -2 -42 -6 -22 -5 -29 -1 -42 24 -9 17 -21 34 -26 37 -6 4 -36 -16 -66 -45
l-54 -51 -68 7 c-78 7 -100 -1 -231 -87 -41 -27 -79 -49 -85 -49 -6 0 -31 -14
-56 -30 -25 -17 -60 -40 -77 -51 -45 -29 -109 -128 -133 -206 -25 -82 -25
-155 0 -269 26 -117 27 -275 2 -324 -18 -36 -69 -76 -110 -87 -37 -9 -136 44
-199 105 -30 30 -57 52 -59 49 -6 -6 34 -112 58 -153 10 -18 30 -40 44 -48 13
-9 24 -25 24 -34 0 -10 11 -29 25 -42 38 -36 33 -54 -13 -45 -98 18 -215 104
-298 221 -25 35 -50 64 -55 64 -29 0 30 -199 89 -298 47 -79 199 -233 274
-277 28 -17 53 -36 55 -42 6 -16 -61 -59 -117 -77 -128 -42 -155 -59 -106 -72
39 -9 263 42 290 67 6 5 16 9 24 9 8 0 49 20 92 44 43 24 81 42 83 39 10 -9
-26 -122 -64 -198 -88 -180 -212 -285 -424 -359 -36 -13 6 -26 85 -26 146 1
319 67 437 167 29 25 53 41 53 35 0 -5 -16 -36 -35 -68 -19 -33 -47 -81 -62
-108 -32 -56 -35 -60 -86 -139 -20 -31 -37 -60 -37 -63 0 -2 -8 -17 -19 -32
-40 -58 -111 -170 -111 -175 0 -15 -96 -140 -124 -162 -17 -13 -71 -82 -119
-153 -83 -123 -87 -131 -86 -183 0 -30 3 -72 7 -94 l8 -40 48 3 c41 3 53 -1
76 -23 42 -41 61 -30 83 45 19 68 85 209 124 270 13 19 23 46 23 60 0 17 33
63 106 150 59 68 113 130 120 137 7 7 61 69 120 138 58 69 112 125 120 125 28
0 41 -30 48 -109 6 -60 11 -81 22 -81 10 0 14 -12 14 -37 0 -52 18 -31 35 43
18 73 19 176 3 261 -11 62 -11 66 9 82 45 34 93 103 93 131 0 28 14 48 111
163 17 20 36 37 43 37 6 0 49 -57 95 -125 l83 -126 -12 -47 c-20 -82 -82 -196
-289 -533 -60 -98 -121 -211 -121 -224 0 -47 196 11 390 117 63 34 115 57 120
52 5 -5 -14 -94 -41 -199 -28 -104 -54 -206 -59 -225 -23 -89 -47 -176 -53
-190 -3 -8 -11 -35 -17 -60 -28 -113 -92 -299 -111 -324 -11 -14 -65 -65 -119
-111 -106 -91 -154 -149 -241 -290 -93 -150 -87 -140 -259 -460 -92 -172 -126
-220 -167 -234 -47 -16 -135 -83 -159 -119 -10 -15 -38 -48 -63 -75 l-45 -49
57 -53 c35 -33 57 -62 57 -75 0 -11 -18 -93 -41 -182 -49 -197 -56 -269 -32
-317 30 -58 63 -64 343 -65 l245 -1 9 42 c13 64 0 106 -55 175 -27 34 -52 73
-56 86 -11 44 4 118 37 190 l33 72 54 0 c30 0 67 7 83 15 29 15 30 19 30 79 0
63 -1 65 -41 100 l-41 35 47 28 c43 25 177 112 259 169 17 12 55 44 84 73 29
28 57 51 61 51 13 0 147 162 179 217 16 28 42 70 58 94 15 24 41 67 58 94 17
28 36 57 41 66 25 40 179 265 237 345 35 49 70 99 78 111 40 57 146 194 193
248 154 177 281 285 338 285 25 0 100 -43 107 -61 2 -4 20 -13 40 -20 20 -6
44 -17 52 -24 34 -28 487 -185 534 -185 12 0 48 -14 80 -31 79 -43 90 -70 81
-203 -5 -72 -20 -150 -53 -271 -42 -156 -46 -181 -47 -295 -1 -84 -8 -148 -20
-193 l-18 -69 -59 -28 c-33 -16 -93 -36 -134 -46 -108 -24 -126 -42 -131 -133
-3 -60 1 -82 23 -134 36 -86 77 -217 99 -312 67 -302 166 -505 246 -505 71 0
100 47 110 179 5 78 12 106 36 151 16 30 37 75 46 99 17 41 19 43 50 37 60
-12 262 -17 277 -7 12 9 12 12 -1 28 -61 71 -158 193 -173 215 l-17 26 58 -5
c85 -8 136 20 169 91 79 172 165 766 189 1306 8 181 -6 335 -38 399 -66 134
-361 344 -760 541 -110 54 -150 79 -160 99 -10 22 -21 27 -62 31 -63 7 -77 15
-69 45 5 19 -3 28 -48 58 -29 20 -65 48 -79 64 l-27 28 -6 325 c-3 179 -8 336
-11 350 -5 22 4 32 72 84 91 69 135 85 258 93 50 3 102 12 116 19 14 7 49 38
77 69 46 50 54 55 94 55 67 0 118 -19 181 -66 104 -78 127 -49 30 36 -56 50
-71 56 -160 70 -37 6 -69 13 -71 14 -1 2 24 53 58 114 33 60 60 114 60 119 0
17 -56 23 -224 23 -109 0 -178 5 -212 14 -27 8 -87 17 -134 21 -100 8 -183 26
-227 49 -18 9 -59 51 -91 94 -156 205 -187 278 -77 176 56 -51 101 -81 110
-72 10 9 -32 85 -85 153 -27 37 -52 82 -59 109 -15 60 -48 76 -159 76 -43 0
-81 3 -84 6 -10 9 23 95 38 101 8 3 37 32 64 65 38 46 50 68 50 94 0 25 8 41
30 61 20 18 30 36 30 55 0 35 24 83 45 91 16 7 149 -47 221 -89 29 -17 51 -39
60 -59 8 -21 28 -40 55 -54 51 -27 138 -119 139 -147 0 -46 32 -126 60 -150
16 -15 33 -44 39 -69 12 -46 31 -61 61 -45 34 18 99 101 137 175 37 72 37 74
21 107 -8 18 -41 64 -72 101 -49 60 -56 74 -56 112 0 47 -19 75 -50 75 -31 0
-51 12 -60 36 -12 30 -96 84 -132 84 -44 0 -69 14 -180 99 -123 93 -194 131
-240 131 -20 -1 -71 -21 -129 -53z"/>
</g>
</svg>
