<?xml version="1.0" standalone="no"?>
<!DOCTYPE svg PUBLIC "-//W3C//DTD SVG 20010904//EN"
 "http://www.w3.org/TR/2001/REC-SVG-20010904/DTD/svg10.dtd">
<svg version="1.0" xmlns="http://www.w3.org/2000/svg"
 width="314.386217pt" height="189.233150pt" viewBox="0 0 314.386217 189.233150"
 preserveAspectRatio="xMidYMid meet">
<metadata>
Created by potrace 1.12, written by Peter Selinger 2001-2015
</metadata>
<g transform="translate(-25.961905,266.000000) scale(0.100000,-0.100000)"
fill="#000000" stroke="none">
<path d="M972 2582 c-49 -93 -76 -197 -68 -264 3 -27 3 -48 1 -48 -2 0 -26 14
-52 30 -26 17 -72 38 -101 46 -56 17 -200 21 -296 9 l-56 -7 44 -39 c47 -42
62 -70 74 -139 l8 -45 80 3 c97 5 153 -9 199 -49 31 -28 38 -30 67 -21 18 6
52 14 76 17 l42 7 -20 29 c-21 28 -63 139 -56 146 8 8 88 -91 112 -140 19 -38
37 -59 65 -74 l39 -21 0 75 c0 114 40 239 105 329 15 20 13 23 -65 74 -86 57
-126 97 -136 136 -3 13 -9 24 -13 24 -4 0 -26 -35 -49 -78z"/>
<path d="M1468 2575 c-157 -92 -245 -200 -283 -350 -28 -111 -11 -245 42 -313
16 -22 22 -37 16 -43 -7 -7 -22 7 -45 39 -20 26 -62 66 -94 87 -76 51 -148 58
-253 26 -119 -36 -165 -42 -215 -27 l-45 14 26 -72 c14 -39 38 -94 55 -123 37
-66 124 -145 194 -175 61 -26 70 -43 19 -35 -19 3 -35 2 -35 -3 0 -26 86 -244
124 -316 73 -138 115 -194 220 -299 109 -108 200 -166 320 -200 90 -26 216
-22 313 10 130 44 282 144 364 241 145 172 196 191 399 149 154 -32 370 -3
503 67 136 72 245 225 288 404 26 105 30 304 10 424 -16 90 -70 273 -104 350
-20 45 -25 51 -31 34 -14 -44 -42 -49 -325 -49 -247 0 -271 -2 -340 -23 -109
-34 -264 -114 -371 -192 -138 -102 -180 -121 -272 -129 -44 -4 -80 -5 -82 -3
-2 2 1 19 7 38 8 28 7 65 -7 163 -19 130 -16 177 10 219 14 22 14 22 -13 16
-173 -39 -239 -69 -308 -138 -92 -93 -144 -228 -125 -326 12 -60 12 -60 -4
-60 -32 0 -35 144 -5 232 23 68 71 147 117 191 30 28 30 29 15 75 -8 26 -12
68 -10 95 2 26 4 47 3 47 -1 0 -36 -20 -78 -45z m1811 -389 c42 -22 54 -43 54
-90 -1 -48 -20 -90 -87 -189 -25 -38 -46 -79 -46 -91 0 -13 11 -44 25 -69 13
-26 20 -49 15 -52 -13 -8 -51 61 -57 104 -6 42 0 56 63 152 24 36 49 86 56
112 11 42 10 49 -8 74 -11 14 -34 31 -51 37 -18 6 -35 14 -39 19 -13 13 46 7
75 -7z m-124 -128 c15 -184 -36 -354 -132 -438 -78 -69 -181 -103 -350 -116
-115 -9 -121 -4 -116 98 9 159 60 292 145 378 86 87 262 157 400 159 l46 1 7
-82z m-752 20 c43 -22 87 -61 87 -78 0 -5 -10 -10 -22 -10 -39 1 -101 36 -143
80 l-40 42 40 -7 c21 -3 57 -16 78 -27z m-101 -130 c49 -47 95 -129 83 -148
-27 -44 -139 73 -179 188 l-15 43 31 -18 c17 -10 53 -39 80 -65z m-161 -77
c59 -89 91 -187 87 -269 -2 -46 -7 -57 -21 -60 -28 -6 -62 32 -100 112 -43 88
-57 153 -57 259 l0 82 21 -25 c11 -14 43 -58 70 -99z m-354 -11 c-6 -65 -47
-150 -72 -150 -20 0 -19 50 0 98 16 38 64 112 73 112 3 0 2 -27 -1 -60z m163
-55 c13 -64 6 -153 -14 -180 -45 -62 -74 114 -39 238 l16 59 13 -30 c7 -16 18
-56 24 -87z m1268 -161 c31 -20 55 -78 47 -115 -9 -40 -43 -79 -82 -96 -19 -7
-81 -20 -139 -28 -128 -18 -163 -34 -164 -73 0 -22 48 -62 75 -62 28 0 34 25
14 62 -14 27 -1 38 17 14 22 -30 18 -93 -5 -99 -29 -7 -99 29 -113 58 -31 67
27 109 176 125 156 18 196 42 196 117 0 57 -33 93 -85 93 -46 0 -75 -29 -75
-75 0 -19 -4 -35 -10 -35 -16 0 -12 73 6 98 30 44 89 50 142 16z m-1472 -104
c71 -34 106 -61 179 -133 l90 -89 -54 -48 c-65 -58 -140 -104 -223 -138 -50
-20 -80 -26 -145 -26 -74 0 -88 3 -156 37 -48 24 -96 58 -133 95 -64 63 -144
169 -144 189 0 15 90 75 164 109 89 40 155 54 248 51 79 -3 94 -7 174 -47z
m-706 -133 c-53 -86 -9 -137 160 -187 95 -28 126 -56 140 -127 12 -55 7 -80
-10 -53 -6 8 -10 26 -10 40 0 36 -33 85 -66 97 -16 6 -62 21 -102 33 -82 24
-146 72 -155 118 -8 40 33 129 54 117 4 -3 -1 -20 -11 -38z m510 -342 c30 -16
56 -52 45 -63 -3 -3 -17 6 -30 20 -13 15 -34 30 -46 33 -26 9 -68 -20 -88 -60
-12 -26 -12 -33 5 -64 43 -81 96 -79 235 9 96 61 140 77 183 66 63 -16 40
-166 -25 -166 -21 0 -46 33 -51 67 -5 33 16 28 25 -6 4 -16 12 -33 19 -37 18
-11 48 34 48 72 0 68 -60 66 -165 -6 -64 -44 -145 -80 -180 -80 -76 0 -137 80
-116 151 21 69 80 96 141 64z"/>
<path d="M520 2083 c-87 -26 -195 -35 -238 -20 l-22 8 25 -66 c40 -107 85
-183 134 -227 68 -60 173 -106 262 -114 l74 -7 -47 50 c-25 28 -59 75 -74 104
-25 50 -94 242 -94 262 0 5 25 -6 56 -24 51 -29 61 -31 121 -26 92 7 97 19 22
56 -75 38 -107 38 -219 4z"/>
</g>
</svg>
