<?xml version="1.0" standalone="no"?>
<!DOCTYPE svg PUBLIC "-//W3C//DTD SVG 20010904//EN"
 "http://www.w3.org/TR/2001/REC-SVG-20010904/DTD/svg10.dtd">
<svg version="1.0" xmlns="http://www.w3.org/2000/svg"
 width="218.845031pt" height="146.135550pt" viewBox="0 0 218.845031 146.135550"
 preserveAspectRatio="xMidYMid meet">
<metadata>
Created by potrace 1.12, written by Peter Selinger 2001-2015
</metadata>
<g transform="translate(-54.116967,169.135550) scale(0.100000,-0.100000)"
fill="#000000" stroke="none">
<path d="M1979 1664 c-51 -32 -63 -35 -175 -44 -125 -9 -220 -31 -318 -75
l-58 -26 -54 51 c-66 62 -93 64 -214 15 -137 -56 -197 -44 -277 54 l-43 52 0
-101 c0 -110 -5 -119 -53 -101 -26 10 -27 10 -27 -27 0 -33 -8 -45 -60 -97
-33 -33 -60 -68 -60 -78 0 -11 -13 -23 -34 -32 -32 -14 -35 -19 -40 -67 -3
-29 -8 -215 -11 -413 -3 -198 -8 -402 -11 -452 -5 -71 -3 -93 6 -93 7 0 195
42 419 94 471 109 481 111 481 96 0 -6 16 -18 35 -26 95 -39 272 12 320 94 16
26 30 31 199 71 390 92 712 172 724 180 10 6 -26 80 -143 297 -87 159 -193
355 -237 437 l-80 147 -59 0 c-68 0 -151 30 -165 60 -8 18 -13 17 -65 -16z
m82 -71 c187 -331 395 -720 388 -727 -3 -3 -61 -13 -129 -21 -139 -18 -363
-72 -485 -116 -44 -16 -104 -47 -133 -69 -29 -22 -57 -38 -61 -35 -5 2 -11 19
-14 37 -3 18 -44 193 -90 388 -46 195 -87 374 -91 397 -6 42 -5 43 33 63 105
53 175 71 321 84 118 10 152 16 180 34 19 12 38 22 42 22 3 0 21 -26 39 -57z
m57 0 c36 -52 412 -757 412 -774 0 -5 -7 -9 -17 -9 -9 0 -14 -3 -10 -6 8 -8
47 5 47 16 0 5 -60 123 -134 262 -142 270 -232 446 -246 484 -15 39 12 29 36
-14 138 -244 391 -726 396 -756 3 -17 -35 -28 -401 -115 l-405 -96 -8 -31
c-16 -63 -97 -103 -229 -111 -73 -5 -76 -4 -97 21 -11 15 -22 31 -24 36 -2 6
-127 -20 -278 -56 -290 -69 -492 -114 -511 -114 -7 0 -8 105 -3 368 4 202 8
374 10 382 1 8 3 62 3 119 1 57 4 101 7 98 4 -4 6 -214 5 -467 -1 -253 1 -460
5 -460 4 0 85 32 178 72 187 78 283 107 450 138 134 24 171 25 261 4 l70 -17
64 32 c147 75 282 112 571 157 96 15 170 29 163 31 -26 9 -319 -41 -481 -83
-95 -24 -178 -44 -185 -44 -23 1 83 50 170 80 103 34 296 74 447 92 96 11 107
14 102 31 -2 10 -95 181 -205 381 -111 199 -201 366 -201 369 0 16 20 5 38
-20z m-1217 -9 c22 -27 89 -56 133 -57 25 -1 73 11 123 31 104 41 156 42 195
5 34 -33 48 -78 124 -394 82 -345 113 -499 101 -499 -5 0 -52 13 -103 30 -117
37 -211 52 -277 44 -29 -4 -105 -26 -170 -50 -65 -24 -125 -44 -133 -44 -8 0
-14 10 -15 23 0 12 -2 31 -4 41 -2 11 -7 214 -11 453 -6 385 -5 433 8 433 9 0
21 -7 29 -16z m-60 -225 c3 -41 7 -153 8 -249 1 -96 4 -184 6 -195 2 -11 4
-80 4 -152 1 -129 2 -133 22 -133 12 0 78 19 148 42 120 40 132 42 241 42 84
-1 131 -6 174 -20 l59 -19 -164 0 -164 0 -192 -67 -192 -66 -3 81 c-8 151 -9
823 -1 830 3 4 16 1 27 -7 17 -11 22 -27 27 -87z m-81 -356 c0 -392 5 -483 24
-483 7 0 75 23 151 51 193 69 280 89 395 88 142 -1 154 -15 20 -22 -136 -8
-332 -56 -480 -118 -52 -22 -103 -43 -112 -46 -17 -5 -18 21 -18 451 0 297 3
456 10 456 6 0 10 -133 10 -377z m-39 -71 c0 -224 3 -423 7 -444 l7 -36 133
49 c227 84 381 121 495 118 37 -1 33 -3 -28 -14 -156 -29 -368 -96 -534 -170
-56 -25 -104 -45 -106 -45 -7 0 -6 892 1 929 18 86 24 -17 25 -387z"/>
</g>
</svg>
