<?xml version="1.0" standalone="no"?>
<!DOCTYPE svg PUBLIC "-//W3C//DTD SVG 20010904//EN"
 "http://www.w3.org/TR/2001/REC-SVG-20010904/DTD/svg10.dtd">
<svg version="1.0" xmlns="http://www.w3.org/2000/svg"
 width="989.000000pt" height="788.000000pt" viewBox="0 0 989.000000 788.000000"
 preserveAspectRatio="xMidYMid meet">

<g transform="translate(0.000000,788.000000) scale(0.100000,-0.100000)"
fill="#000000" stroke="none">
<path d="M4090 6959 c-61 -25 -110 -101 -110 -172 0 -63 55 -167 132 -250 35
-37 126 -123 203 -190 77 -68 146 -135 155 -150 19 -33 5 -61 -33 -65 -20 -3
-29 3 -42 28 -18 34 -38 35 -43 2 -2 -13 7 -32 22 -47 53 -53 145 -17 147 57
0 29 2 31 12 15 7 -10 38 -46 69 -80 46 -49 58 -69 58 -95 0 -18 7 -49 15 -69
11 -25 15 -73 15 -168 0 -144 -11 -195 -41 -195 -10 0 -19 -6 -19 -13 0 -7
-30 -21 -67 -33 -54 -16 -68 -24 -68 -40 0 -17 9 -20 80 -25 l80 -5 -102 -2
-103 -2 0 -139 0 -139 -326 -427 c-179 -235 -332 -442 -340 -461 -20 -48 -18
-170 4 -219 10 -22 36 -108 57 -192 38 -149 39 -153 22 -188 -9 -19 -21 -35
-26 -35 -5 0 -23 -12 -40 -26 -48 -40 -43 -80 17 -136 26 -25 68 -69 94 -99
l45 -54 -14 -88 c-19 -112 -14 -133 36 -148 30 -9 41 -18 45 -38 3 -14 8 -251
12 -526 l6 -500 -51 77 c-28 42 -70 114 -93 160 -41 80 -43 86 -43 178 1 103
24 264 51 348 9 29 14 55 11 58 -3 4 -19 6 -34 7 -36 0 -60 -33 -94 -126 -15
-40 -31 -72 -35 -72 -5 0 -11 43 -14 95 -5 103 -11 120 -40 120 -27 0 -40 -30
-54 -119 l-12 -76 -22 42 c-23 45 -54 62 -77 43 -20 -17 -18 -47 5 -99 31 -67
26 -80 -15 -41 -29 28 -39 32 -53 24 -26 -17 -25 -46 3 -84 25 -34 25 -34 5
-54 -14 -15 -37 -21 -86 -24 -55 -4 -67 -8 -71 -23 -3 -11 -13 -19 -23 -19
-10 0 -32 -3 -49 -6 -27 -6 -31 -4 -31 15 0 12 6 21 14 21 8 0 35 17 59 37 24
21 54 46 66 55 26 22 28 58 3 58 -9 0 -33 -13 -52 -29 -19 -15 -50 -36 -67
-45 -31 -16 -33 -16 -33 1 0 10 25 47 55 82 31 35 54 68 52 75 -2 6 -15 12
-28 14 -19 2 -33 -7 -58 -39 -30 -36 -35 -39 -44 -24 -5 9 -6 35 -3 57 5 31 3
43 -10 52 -22 17 -21 187 2 242 15 35 15 39 -2 51 -10 7 -39 13 -66 13 l-47 0
-15 53 c-9 28 -23 84 -31 122 -28 128 -54 184 -94 206 -118 66 -231 155 -231
183 0 19 -51 67 -68 64 -12 -3 -17 -13 -15 -38 1 -19 -3 -38 -9 -41 -15 -9
-37 -169 -28 -195 6 -15 34 -28 116 -53 60 -19 119 -43 131 -55 23 -22 35 -70
48 -193 7 -60 6 -63 -14 -63 -32 0 -47 -41 -28 -71 9 -13 19 -55 22 -94 4 -38
11 -74 15 -80 22 -27 9 -454 -19 -617 -16 -96 -44 -207 -51 -203 -4 3 -24 39
-45 82 -21 43 -46 90 -57 105 -10 15 -21 36 -23 45 -2 10 -15 39 -29 65 -15
25 -30 66 -34 90 -7 37 -11 43 -35 46 -16 2 -34 -2 -42 -8 -11 -9 -19 -2 -38
37 -13 26 -30 66 -37 88 -7 22 -24 62 -36 90 -13 27 -24 69 -24 92 0 23 -4 44
-9 47 -4 3 -14 25 -20 48 -8 25 -32 65 -59 95 -38 43 -55 54 -89 59 -49 8 -58
-9 -23 -41 20 -19 20 -19 -10 -31 -16 -7 -30 -20 -30 -29 0 -9 -10 -25 -21
-34 -18 -14 -20 -21 -11 -37 8 -15 7 -23 -6 -37 -15 -16 -14 -22 3 -75 20 -60
56 -112 85 -124 17 -6 122 -182 134 -225 6 -17 -2 -29 -39 -59 -47 -40 -59
-75 -29 -92 14 -8 8 -17 -33 -58 -63 -64 -105 -145 -157 -306 -29 -90 -45
-126 -49 -113 -26 84 -31 140 -32 345 -1 143 -7 276 -18 365 -30 245 -31 281
-15 343 9 31 23 86 32 122 10 36 29 107 43 159 24 89 25 95 8 107 -12 9 -16
21 -12 36 4 12 2 28 -4 34 -13 16 -39 7 -39 -15 0 -9 -11 -38 -24 -66 l-24
-50 -1 78 c-1 62 -4 77 -16 77 -19 0 -29 -26 -45 -110 -12 -68 -39 -140 -51
-140 -11 0 -17 25 -24 95 -11 112 -15 125 -34 125 -16 0 -19 -10 -23 -72 -2
-50 -9 -81 -21 -98 -18 -24 -18 -20 -15 177 2 151 0 205 -10 215 -23 23 -43
-15 -56 -103 -17 -122 -35 -117 -52 16 -9 71 -31 145 -55 185 -20 32 -22 33
-35 15 -18 -24 -18 -82 0 -154 20 -80 28 -141 18 -141 -5 0 -26 55 -46 123
-44 140 -70 197 -92 197 -30 0 -29 -21 12 -200 5 -23 4 -22 -14 6 -24 37 -38
48 -46 35 -8 -13 19 -150 39 -197 20 -49 45 -164 45 -211 0 -37 -11 -85 -37
-166 -8 -26 -19 -73 -23 -105 -15 -105 -60 -263 -60 -208 0 9 -11 33 -25 54
-13 20 -29 60 -35 89 -12 56 -27 68 -66 52 -32 -12 -40 -2 -74 84 -12 34 -33
85 -45 112 -13 28 -26 70 -29 95 -19 126 -101 252 -173 263 -49 8 -63 -6 -35
-36 28 -30 28 -33 -3 -41 -18 -5 -25 -13 -25 -30 0 -15 -7 -26 -20 -29 -11 -3
-20 -12 -20 -21 0 -9 -6 -16 -14 -16 -8 0 -28 -28 -44 -62 -30 -63 -31 -63
-47 -13 -8 26 -33 16 -44 -16 -6 -18 -11 -51 -11 -73 0 -38 -13 -66 -31 -66
-4 0 -17 16 -29 36 -33 57 -46 30 -19 -41 20 -55 21 -59 5 -107 -14 -45 -14
-52 0 -86 14 -30 17 -85 20 -307 6 -450 9 -506 33 -553 12 -23 21 -50 21 -60
0 -11 9 -31 20 -45 11 -14 20 -30 20 -36 0 -6 5 -11 10 -11 6 0 10 -8 10 -18
0 -10 5 -23 11 -29 8 -8 -5 -14 -47 -23 -33 -6 -74 -20 -92 -31 -29 -16 -38
-17 -77 -7 -27 7 -45 18 -45 26 0 8 14 42 31 76 80 156 79 311 -4 424 -21 28
-42 64 -48 81 -6 18 -28 43 -52 58 -22 16 -49 44 -59 64 -30 58 -59 78 -167
113 l-101 32 0 -1228 0 -1228 4945 0 4945 0 0 1450 c0 1252 -2 1455 -15 1493
-11 33 -12 57 -5 101 14 86 15 425 1 439 -27 27 -59 -51 -61 -145 0 -34 -14
-57 -27 -45 -2 3 -13 55 -24 116 -24 141 -66 228 -90 190 -13 -21 -10 -97 6
-164 8 -33 14 -78 14 -100 -1 -33 -8 -18 -43 90 -49 149 -70 195 -92 195 -31
0 -28 -40 13 -205 2 -11 -5 -4 -17 15 -29 46 -29 45 -41 33 -13 -13 4 -113 32
-193 24 -67 49 -180 49 -222 0 -18 -4 -45 -9 -62 -5 -17 -19 -62 -30 -101 -12
-38 -21 -81 -21 -94 0 -13 -18 -98 -40 -189 -58 -237 -110 -499 -118 -600 l-7
-87 -71 -67 c-54 -50 -81 -68 -110 -73 -66 -11 -103 -26 -134 -52 -22 -18 -31
-21 -34 -11 -3 7 -10 30 -16 50 -8 27 -32 55 -81 98 -39 33 -74 60 -80 60 -18
0 -8 16 52 80 69 73 83 101 127 250 64 215 73 266 82 467 9 191 9 193 45 275
40 90 58 196 48 283 -6 54 -27 105 -44 105 -5 0 -22 9 -37 20 -33 24 -59 32
-134 37 -32 3 -62 11 -69 19 -19 23 -26 17 -57 -50 -57 -122 -54 -181 13 -256
40 -45 65 -99 65 -142 0 -9 -16 -86 -35 -170 -30 -131 -44 -172 -101 -288 -70
-142 -114 -256 -114 -299 0 -32 -5 -39 -53 -74 -44 -33 -59 -27 -77 29 -7 21
-27 44 -52 61 -23 16 -49 43 -59 62 -27 50 -56 77 -102 94 -209 74 -235 75
-334 6 -62 -43 -74 -48 -80 -33 -12 32 6 505 22 564 17 65 19 114 5 141 -15
26 1 54 61 107 27 24 54 55 61 70 7 14 39 46 71 70 44 33 57 50 55 66 -2 17
-9 21 -41 20 -29 -1 -45 -9 -73 -38 -42 -43 -74 -46 -103 -10 -30 38 -34 76
-21 227 8 99 8 142 0 157 -27 50 -70 3 -70 -77 0 -51 -24 -133 -40 -133 -15 0
-28 27 -70 145 -49 137 -76 172 -98 128 -6 -12 -3 -44 10 -93 10 -41 17 -79
15 -84 -2 -5 -23 25 -47 67 -44 78 -72 100 -95 76 -11 -12 -6 -32 32 -122 25
-59 43 -110 40 -114 -4 -3 -31 17 -61 45 -37 35 -63 52 -80 52 -33 0 -33 -20
0 -51 90 -84 163 -216 200 -359 18 -71 19 -66 -18 -77 l-33 -9 2 -75 3 -74
-25 59 c-31 76 -49 96 -69 76 -13 -13 -12 -25 5 -95 24 -102 24 -118 -2 -76
-15 25 -23 31 -32 22 -14 -14 15 -167 41 -215 12 -23 17 -64 20 -158 l4 -128
-31 0 c-17 0 -39 -4 -49 -8 -9 -5 -30 -15 -46 -23 -44 -22 -96 -114 -108 -195
-5 -38 -12 -80 -15 -94 l-5 -25 -19 25 c-11 14 -45 63 -76 110 -31 47 -60 87
-64 90 -12 8 -79 153 -79 170 0 9 14 38 32 66 17 27 51 90 76 139 24 50 51 98
60 108 11 13 13 20 4 29 -21 21 -60 -2 -111 -67 -28 -36 -59 -65 -69 -65 -44
1 -62 39 -62 137 0 84 -14 121 -42 110 -11 -4 -18 -26 -23 -69 -12 -119 -26
-127 -67 -40 -44 92 -66 122 -88 122 -35 0 -34 -29 4 -105 20 -41 36 -84 36
-96 0 -21 -3 -19 -26 12 -14 19 -34 51 -45 72 -15 29 -25 38 -42 35 -35 -5
-31 -32 13 -108 23 -39 39 -78 36 -86 -8 -21 -53 -17 -116 11 -55 23 -78 20
-67 -9 3 -8 32 -29 64 -45 76 -40 83 -46 125 -111 19 -30 54 -77 77 -105 23
-27 60 -85 82 -129 l41 -78 -37 -38 -37 -38 77 -97 c43 -54 90 -123 105 -154
26 -52 152 -243 188 -284 23 -26 4 -51 -44 -57 -31 -4 -45 -1 -67 17 -31 25
-57 29 -74 12 -7 -7 -40 4 -112 40 -55 28 -110 51 -120 51 -12 0 -61 39 -114
88 -73 68 -107 93 -153 110 -32 12 -75 37 -96 56 l-36 34 -11 159 c-14 194
-25 262 -52 339 -18 49 -22 90 -26 244 l-6 185 46 54 c25 30 56 74 68 99 11
25 32 62 45 81 13 20 24 44 24 54 0 23 -29 67 -44 67 -6 0 -20 14 -29 30 -23
37 -43 40 -172 22 -67 -9 -74 -27 -91 -216 -7 -83 -14 -152 -14 -152 0 -1 -16
-5 -36 -9 -20 -3 -46 -17 -59 -30 -28 -31 -74 -55 -91 -48 -7 3 -23 20 -34 38
-23 37 -25 99 -10 254 9 101 3 131 -29 131 -30 0 -42 -25 -46 -96 -5 -80 -21
-126 -44 -122 -15 3 -27 31 -86 203 -9 28 -26 58 -38 68 -18 16 -22 16 -35 3
-13 -13 -12 -25 7 -102 12 -47 20 -88 18 -90 -2 -2 -22 30 -46 71 -43 77 -68
99 -95 89 -22 -9 -20 -22 15 -100 38 -82 60 -144 53 -144 -3 0 -31 22 -63 50
-57 49 -101 65 -101 35 0 -8 22 -39 48 -68 71 -78 108 -136 137 -214 49 -127
56 -180 28 -189 -46 -14 -46 -14 -44 -150 2 -109 -2 -145 -24 -235 -28 -118
-30 -148 -24 -519 l4 -245 -52 -3 -51 -3 -6 63 c-3 35 -10 239 -16 453 -5 215
-15 559 -21 765 l-10 375 109 290 c214 568 224 605 188 730 -37 126 -88 205
-375 578 l-280 365 -3 138 -3 139 -75 6 c-65 5 -68 6 -22 7 47 2 52 4 52 25 0
19 -10 25 -66 41 -36 10 -68 25 -71 32 -3 8 -11 14 -18 14 -22 0 -36 60 -42
187 -5 112 -4 125 16 169 13 26 21 58 18 71 -5 26 12 52 91 137 l52 58 0 -32
c0 -61 83 -104 131 -67 23 17 41 56 35 73 -9 23 -33 16 -40 -11 -7 -29 -49
-44 -71 -25 -41 34 -8 74 219 270 220 191 300 336 248 452 -11 25 -36 58 -58
74 -33 26 -45 29 -109 29 -63 0 -76 -3 -108 -28 -21 -15 -46 -45 -57 -65 l-19
-37 -1 42 0 42 -122 3 c-68 2 -259 2 -425 0 l-303 -3 0 -34 c0 -19 -4 -35 -10
-35 -5 0 -10 5 -10 11 0 22 -43 70 -80 89 -42 22 -118 26 -160 9z m138 -94
c17 -14 34 -41 39 -63 8 -33 12 -37 41 -37 36 0 36 0 47 -127 7 -80 45 -219
81 -291 24 -49 14 -41 -148 123 -181 181 -228 248 -228 314 1 91 100 138 168
81z m1206 14 c26 -12 56 -63 56 -96 0 -11 -14 -49 -31 -84 -26 -52 -63 -95
-197 -228 -91 -90 -162 -156 -157 -145 62 149 85 236 92 351 l6 91 32 -5 c28
-5 34 -2 40 18 16 57 29 81 54 94 32 17 72 19 105 4z m-620 -183 l28 -75 67
-7 c111 -11 112 -13 43 -70 -34 -27 -61 -56 -61 -64 -1 -8 5 -48 13 -87 7 -40
12 -73 10 -73 -3 0 -33 18 -68 40 -35 22 -69 40 -75 40 -7 0 -42 -16 -77 -36
-36 -20 -67 -34 -70 -31 -3 2 4 39 14 80 l19 75 -59 59 -59 58 28 6 c15 4 52
7 81 8 l52 1 37 75 c21 41 40 75 43 75 3 0 18 -33 34 -74z m272 -1958 c26 -46
92 -158 146 -250 54 -92 105 -183 113 -202 33 -77 11 -180 -64 -305 -55 -91
-185 -279 -230 -331 l-30 -35 -1 67 c0 78 12 110 48 129 53 29 96 187 58 218
-10 8 -14 34 -13 84 1 123 -56 263 -135 331 -52 45 -176 80 -263 74 -122 -8
-229 -81 -286 -195 -30 -61 -34 -78 -37 -163 -2 -52 -6 -118 -8 -147 -7 -64
24 -139 84 -205 52 -57 61 -75 67 -144 l6 -59 -46 49 c-54 57 -266 374 -296
442 -36 80 -25 135 58 304 39 80 112 207 162 283 l90 137 265 0 264 0 48 -82z
m-4297 -1805 c12 -16 33 -35 47 -43 16 -9 49 -58 85 -127 l60 -112 -29 -26
c-16 -14 -36 -31 -45 -38 -9 -6 -18 -23 -19 -36 -2 -19 5 -28 37 -45 21 -12
54 -41 72 -66 18 -25 39 -52 46 -60 7 -8 48 -88 91 -176 92 -189 94 -207 20
-225 -72 -18 -132 -117 -105 -175 16 -36 5 -46 -58 -52 -49 -4 -50 -4 -56 24
-20 98 -25 106 -74 127 l-48 20 -6 111 c-8 147 -26 269 -42 281 -14 11 -31 96
-65 315 l-21 135 20 65 c12 36 28 92 37 125 15 55 17 58 24 33 5 -15 18 -40
29 -55z m5397 -100 c-4 -38 -14 -117 -23 -178 -22 -146 -22 -367 -1 -465 10
-41 17 -96 17 -122 l1 -48 -43 0 c-35 0 -55 -9 -120 -55 l-77 -55 -2 123 c-1
67 -2 138 -1 157 6 161 14 268 23 296 12 34 15 100 9 167 -3 35 1 42 49 85 29
26 63 64 75 85 21 34 68 74 91 76 4 1 5 -29 2 -66z m-4418 -363 c2 -159 0
-210 -9 -210 -9 0 -11 37 -7 153 3 83 2 182 -1 219 -4 46 -3 64 4 57 6 -6 11
-95 13 -219z m1766 -115 c41 -41 78 -75 84 -75 16 0 60 -74 98 -167 20 -48 48
-107 61 -131 14 -24 24 -45 22 -47 -2 -2 -30 -8 -63 -14 -70 -13 -113 -38
-162 -94 -38 -45 -94 -155 -115 -224 l-12 -43 -69 0 -70 0 8 185 c7 194 6 201
-41 355 -13 41 -26 109 -30 150 -3 41 -8 89 -11 106 -6 31 -5 32 58 52 34 11
87 21 116 21 52 1 52 1 126 -74z"/>
<path d="M6270 5900 c0 -5 5 -10 11 -10 5 0 7 5 4 10 -3 6 -8 10 -11 10 -2 0
-4 -4 -4 -10z"/>
<path d="M0 3385 c0 -33 2 -36 15 -25 18 15 16 51 -2 58 -9 2 -13 -8 -13 -33z"/>
</g>
</svg>
