<?xml version="1.0" standalone="no"?>
<!DOCTYPE svg PUBLIC "-//W3C//DTD SVG 20010904//EN"
 "http://www.w3.org/TR/2001/REC-SVG-20010904/DTD/svg10.dtd">
<svg version="1.0" xmlns="http://www.w3.org/2000/svg"
 width="562.839681pt" height="570.328226pt" viewBox="0 0 562.839681 570.328226"
 preserveAspectRatio="xMidYMid meet">
<metadata>
Created by potrace 1.12, written by Peter Selinger 2001-2015
</metadata>
<g transform="translate(-27.160319,621.828226) scale(0.100000,-0.100000)"
fill="#000000" stroke="none">
<path d="M4830 6199 c-19 -12 -57 -29 -85 -38 -77 -25 -146 -68 -185 -115 -19
-24 -57 -69 -84 -100 -54 -62 -56 -86 -12 -128 24 -23 24 -23 10 -113 -7 -49
-13 -119 -13 -156 -1 -61 1 -68 34 -103 35 -38 35 -39 35 -131 0 -100 5 -111
54 -117 24 -2 32 -10 43 -42 15 -45 40 -76 60 -76 24 0 16 -55 -11 -70 -16 -8
-41 -47 -70 -107 -30 -61 -53 -97 -65 -100 -20 -5 -68 -77 -119 -179 -21 -42
-42 -68 -66 -82 -20 -12 -38 -17 -40 -13 -3 5 -17 45 -31 90 l-26 82 22 64
c15 46 20 78 16 108 -6 44 5 113 20 128 5 5 78 18 162 28 152 19 186 30 163
53 -8 8 -45 6 -149 -11 -76 -12 -146 -25 -155 -27 -12 -4 -18 0 -18 11 0 8
-12 20 -27 26 -22 9 -34 7 -56 -5 -28 -16 -29 -16 -40 14 -9 23 -18 30 -38 30
-21 0 -29 -7 -38 -30 -12 -37 -24 -38 -39 -5 -21 46 -67 28 -74 -30 -2 -24 -8
-31 -31 -33 -34 -4 -51 -42 -61 -132 -5 -50 -3 -74 9 -104 16 -38 16 -39 -8
-65 -13 -14 -34 -60 -47 -101 -12 -41 -35 -96 -51 -123 -16 -26 -29 -54 -29
-62 0 -8 34 -65 76 -126 60 -87 75 -116 67 -128 -22 -35 -33 -31 -527 203
l-120 57 -54 -22 -55 -22 -111 56 c-61 31 -163 84 -226 118 -240 126 -370 190
-379 185 -5 -3 -23 -1 -40 5 -18 6 -34 9 -37 7 -2 -3 34 -117 81 -254 48 -137
95 -277 106 -311 l19 -61 137 -55 c137 -55 138 -55 145 -92 5 -20 25 -62 47
-93 42 -63 101 -160 101 -167 0 -3 -19 -2 -42 1 -24 4 -98 36 -168 74 -120 66
-131 70 -282 99 -91 18 -189 31 -233 31 -69 0 -83 -4 -164 -44 -49 -25 -91
-52 -94 -60 -3 -8 -98 -129 -210 -268 -112 -139 -270 -341 -352 -448 -81 -107
-176 -224 -210 -260 -34 -36 -81 -91 -103 -123 -35 -50 -39 -62 -30 -82 8 -19
5 -32 -18 -75 -47 -86 -74 -98 -239 -106 -134 -6 -144 -6 -230 21 -49 15 -121
44 -160 65 -86 47 -132 56 -179 36 -51 -21 -47 -46 25 -187 93 -179 191 -285
311 -339 25 -11 97 -28 161 -38 65 -10 120 -22 124 -26 4 -3 -1 -20 -10 -35
-9 -16 -17 -36 -17 -44 0 -15 105 -88 153 -106 52 -20 127 -13 196 18 57 26
68 36 99 88 19 32 41 65 49 75 17 19 46 136 38 156 -3 8 6 39 21 69 29 61 26
61 110 8 43 -28 65 -36 93 -33 42 3 41 14 11 -152 -11 -58 -27 -190 -36 -295
-14 -160 -21 -202 -45 -265 -16 -41 -29 -79 -28 -85 0 -5 28 -23 62 -40 l62
-30 2 -49 c3 -46 -2 -57 -69 -165 -87 -139 -147 -200 -260 -264 -78 -43 -90
-47 -154 -47 -61 -1 -74 -4 -108 -30 -21 -16 -44 -40 -51 -54 -22 -43 12 -55
182 -66 82 -5 201 -14 267 -20 l119 -10 91 58 c92 60 130 82 140 82 3 0 6 -11
6 -25 0 -14 8 -29 19 -35 26 -13 191 -11 260 3 l53 12 34 80 c18 44 36 104 40
133 8 68 -16 167 -62 250 -27 48 -33 66 -25 76 7 8 18 50 26 95 8 45 30 141
49 214 38 145 39 190 4 261 -18 34 -18 44 -8 85 12 44 163 384 181 407 5 6 30
14 57 17 26 3 136 17 246 32 109 14 200 24 203 22 2 -3 0 -346 -6 -763 -5
-418 -8 -760 -8 -761 1 0 16 -3 32 -5 l30 -3 7 455 c4 250 11 583 14 740 l6
285 32 -37 c58 -68 269 -130 486 -142 32 -1 70 -15 123 -45 l77 -42 2 -782 3
-782 40 0 40 0 6 130 c4 72 8 292 9 490 2 198 6 488 9 645 l6 284 85 2 c47 2
228 5 403 9 l319 6 -6 -198 c-3 -109 -8 -372 -12 -584 l-7 -385 36 4 35 4 6
201 c3 111 8 319 11 462 3 143 8 313 11 378 l6 117 152 -1 c107 0 227 -10 411
-32 l260 -33 -4 -722 -4 -722 40 0 41 0 6 163 c3 89 10 542 16 1007 5 465 13
995 17 1178 l6 332 29 0 c35 0 43 17 31 67 -7 31 -14 39 -38 43 -29 5 -30 7
-27 60 2 30 24 134 49 230 25 96 48 191 53 211 4 20 21 59 38 87 18 29 46 104
66 178 32 114 36 141 36 249 l0 122 -80 159 c-44 87 -85 175 -91 194 -6 19
-24 62 -39 95 -15 33 -35 100 -43 150 -13 69 -21 93 -39 106 -27 21 -131 53
-149 47 -22 -8 -69 31 -69 56 0 13 7 43 16 67 8 24 19 78 24 119 5 41 12 100
16 131 6 52 3 65 -48 190 -73 179 -136 273 -232 344 l-74 54 -113 6 c-107 6
-116 5 -149 -16z m-1280 -2385 c0 -9 -5 -14 -12 -12 -18 6 -21 28 -4 28 9 0
16 -7 16 -16z m1420 -1031 c13 -9 67 -26 120 -38 l96 -21 170 32 c93 18 175
33 182 33 9 1 12 -72 12 -330 l0 -330 -42 5 c-24 3 -113 15 -198 26 -85 11
-222 28 -304 38 -212 24 -205 39 21 44 145 3 188 8 232 23 114 41 121 115 22
225 l-59 65 -231 -2 c-127 -1 -231 1 -231 4 0 19 157 243 170 243 9 0 26 -8
40 -17z"/>
</g>
</svg>
