<?xml version="1.0" standalone="no"?>
<!DOCTYPE svg PUBLIC "-//W3C//DTD SVG 20010904//EN"
 "http://www.w3.org/TR/2001/REC-SVG-20010904/DTD/svg10.dtd">
<svg version="1.0" xmlns="http://www.w3.org/2000/svg"
 width="250.844255pt" height="217.883108pt" viewBox="0 0 250.844255 217.883108"
 preserveAspectRatio="xMidYMid meet">
<metadata>
Created by potrace 1.12, written by Peter Selinger 2001-2015
</metadata>
<g transform="translate(-75.148259,317.792648) scale(0.100000,-0.100000)"
fill="#000000" stroke="none">
<path d="M1651 3169 c-29 -5 -113 -34 -187 -65 -73 -31 -138 -54 -144 -52 -7
2 4 24 25 51 20 27 35 50 33 52 -5 5 -163 -137 -196 -177 -13 -15 -19 -28 -13
-28 6 0 15 -9 21 -21 17 -31 -11 -69 -51 -69 -24 0 -30 4 -27 18 2 9 11 15 19
13 34 -8 44 -5 47 17 6 37 -46 26 -74 -16 -19 -27 -21 -38 -12 -63 5 -16 22
-38 36 -50 l27 -21 7 36 c19 92 97 155 162 130 22 -8 20 -57 -2 -77 -23 -21
-36 -21 -51 -3 -16 19 2 56 26 56 15 0 15 -2 0 -18 -21 -23 -21 -32 -2 -32 9
0 21 12 27 26 13 28 1 44 -34 44 -41 0 -108 -83 -108 -134 0 -25 1 -25 63 -19
119 11 235 -45 287 -137 33 -61 34 -161 2 -245 -24 -64 -83 -152 -108 -162
-19 -7 -144 96 -207 172 -98 118 -122 216 -72 302 30 50 17 56 -27 13 -26 -26
-29 -35 -24 -65 6 -28 4 -35 -9 -35 -20 0 -20 42 1 81 l15 30 -33 -17 c-80
-41 -198 -205 -198 -275 0 -35 35 -63 62 -48 10 5 26 21 35 36 17 25 17 27 -5
41 -27 18 -28 32 -3 32 47 0 51 -55 7 -103 -48 -51 -106 -24 -106 49 0 89 122
245 230 296 l55 25 -33 8 c-59 12 -121 -3 -154 -38 -44 -48 -147 -205 -175
-267 -30 -66 -40 -162 -23 -214 18 -54 78 -125 161 -188 96 -74 167 -105 254
-114 115 -11 177 -69 272 -258 89 -177 219 -334 397 -480 239 -196 366 -238
569 -187 188 49 544 230 743 379 145 109 139 147 -20 136 -109 -7 -141 3 -161
48 -7 18 -27 123 -44 234 -49 316 -81 406 -174 490 -52 47 -131 88 -188 99
l-37 7 5 57 c5 56 4 60 -30 97 -32 36 -34 41 -21 59 20 27 17 64 -6 103 -19
30 -19 35 -5 55 23 33 19 81 -10 115 -32 38 -74 48 -114 28 -29 -15 -32 -15
-68 10 -44 30 -100 29 -135 -3 -15 -13 -22 -14 -25 -6 -3 7 -20 22 -39 34 -30
18 -44 21 -90 15 -50 -6 -54 -5 -54 14 0 66 -75 152 -153 175 -56 17 -58 17
-136 4z m637 -401 c24 -24 13 -59 -30 -101 -24 -22 -115 -89 -203 -149 -88
-59 -176 -121 -195 -136 l-34 -27 34 49 c50 70 209 254 264 304 69 64 136 88
164 60z m-410 -158 c2 -25 -12 -69 -48 -150 l-50 -115 0 76 c0 143 29 233 73
227 17 -2 23 -11 25 -38z m267 -184 c26 -11 35 -21 35 -39 0 -43 -24 -52 -164
-58 -72 -4 -142 -10 -156 -14 -24 -7 -24 -6 5 18 43 37 120 78 174 93 61 16
66 16 106 0z m-371 -158 c15 -24 -3 -52 -37 -56 -33 -4 -53 28 -37 59 14 25
58 23 74 -3z m482 -251 c112 -57 214 -211 270 -408 15 -52 32 -98 38 -102 6
-4 34 -6 62 -4 118 8 237 152 183 221 -24 31 -52 33 -79 6 -34 -34 -35 -66 -5
-111 21 -29 25 -43 17 -51 -27 -27 -69 57 -58 116 19 103 146 112 154 11 5
-54 -13 -89 -75 -145 -56 -52 -114 -75 -165 -68 -33 5 -34 -2 -8 -57 29 -61
80 -106 127 -112 32 -4 45 0 71 22 38 32 41 65 10 95 -26 24 -28 24 -56 4 -26
-18 -28 -36 -7 -54 12 -10 16 -9 21 4 7 17 34 22 34 7 0 -12 -29 -41 -41 -41
-13 0 -49 38 -49 53 0 29 31 57 65 57 38 0 75 -37 75 -75 0 -54 -78 -104 -141
-90 -17 4 -45 20 -63 36 l-33 29 -6 -78 c-9 -133 -51 -212 -110 -212 -76 0
-89 90 -20 135 57 38 92 -29 42 -80 -15 -16 -21 -17 -31 -6 -11 10 -9 16 10
28 22 16 31 53 12 53 -6 0 -22 -11 -35 -25 -30 -29 -33 -70 -5 -85 74 -40 141
138 114 303 -8 47 -16 47 -33 0 -27 -75 -165 -191 -278 -236 -140 -55 -288
-14 -343 94 -24 46 -25 70 -4 110 21 41 70 61 117 48 39 -11 80 -53 75 -78 -5
-23 -32 -20 -36 4 -11 59 -93 77 -131 29 -73 -93 65 -225 219 -211 164 15 380
190 380 309 0 21 0 21 -27 -5 -76 -72 -191 -76 -181 -5 4 30 22 26 26 -7 3
-19 9 -25 28 -25 32 0 81 22 118 53 l30 24 -115 6 c-176 9 -278 43 -400 136
-75 56 -230 210 -250 247 -12 24 -11 27 11 45 46 36 132 82 189 101 83 27 218
20 287 -15z"/>
<path d="M1030 2815 l-34 -35 53 0 c43 0 51 3 43 13 -6 7 -15 23 -19 35 -8 22
-9 22 -43 -13z"/>
</g>
</svg>
