<?xml version="1.0" standalone="no"?>
<!DOCTYPE svg PUBLIC "-//W3C//DTD SVG 20010904//EN"
 "http://www.w3.org/TR/2001/REC-SVG-20010904/DTD/svg10.dtd">
<svg version="1.0" xmlns="http://www.w3.org/2000/svg"
 width="219.889810pt" height="269.220400pt" viewBox="0 0 219.889810 269.220400"
 preserveAspectRatio="xMidYMid meet">
<metadata>
Created by potrace 1.12, written by Peter Selinger 2001-2015
</metadata>
<g transform="translate(-54.110190,292.220400) scale(0.100000,-0.100000)"
fill="#000000" stroke="none">
<path d="M2330 2915 c-31 -7 -65 -17 -78 -24 -12 -6 -26 -9 -31 -7 -13 8 -150
-61 -191 -97 -44 -37 -59 -69 -60 -127 -1 -44 -1 -45 -15 -20 -8 14 -14 35
-15 47 0 12 -5 25 -10 28 -19 12 -22 -24 -6 -77 8 -29 14 -54 12 -55 -2 -2
-16 21 -32 51 -27 53 -29 54 -47 38 -15 -13 -18 -26 -14 -57 5 -38 5 -39 -11
-20 -17 20 -17 20 -39 -1 l-22 -20 39 -65 c22 -35 40 -71 40 -79 0 -8 -8 -1
-19 15 -28 46 -86 80 -111 65 -11 -7 -5 -18 22 -48 42 -46 66 -108 49 -125 -8
-8 -11 -7 -11 4 0 8 -12 32 -26 53 -15 21 -33 51 -40 65 l-14 26 0 -28 c0 -16
5 -37 10 -48 15 -28 -1 -23 -25 7 l-21 26 -18 -33 c-19 -36 -15 -55 20 -109
13 -19 10 -18 -14 6 -16 17 -32 38 -34 45 -3 8 -8 11 -12 7 -10 -9 9 -42 52
-91 32 -38 31 -37 -16 8 -29 27 -53 47 -53 45 -12 -49 -7 -66 28 -97 45 -38
39 -53 -8 -24 -41 25 -65 27 -73 5 -7 -18 44 -74 68 -74 8 0 18 -4 21 -10 4
-6 -5 -7 -23 -4 -20 4 -32 1 -42 -13 -12 -15 -12 -16 0 -5 22 19 35 14 17 -6
-19 -21 -23 -42 -5 -24 18 18 48 15 48 -5 0 -10 -11 -52 -24 -93 -28 -86 -47
-180 -36 -180 4 0 13 26 20 58 24 108 50 182 70 192 10 5 33 7 52 4 19 -3 28
-2 21 3 -7 5 4 9 30 9 23 1 43 7 45 13 2 7 9 8 21 2 10 -6 23 -6 32 0 10 6 10
9 2 9 -26 0 -12 21 18 27 17 3 33 12 36 19 3 8 13 14 22 15 12 0 12 2 -4 9
-14 6 -16 9 -4 9 8 1 26 11 38 23 l24 21 -49 14 c-27 8 -73 17 -103 20 -40 4
-49 8 -37 15 11 6 45 2 101 -13 80 -20 115 -20 115 -1 0 12 -125 62 -158 63
-20 1 -15 4 16 10 34 6 54 4 93 -11 61 -24 93 -26 85 -5 -3 10 3 17 19 21 14
3 25 9 25 13 0 4 -22 31 -49 59 l-48 53 31 -8 c47 -11 90 -7 131 14 l37 20
-92 26 c-50 14 -98 23 -107 20 -11 -4 -14 -2 -11 8 8 24 44 21 123 -10 106
-43 115 -39 20 8 -44 22 -74 40 -67 40 7 1 38 -12 69 -29 57 -30 93 -38 93
-20 0 6 -9 10 -19 10 -11 0 -23 5 -26 10 -4 7 2 9 19 4 21 -5 37 3 86 42 33
27 60 52 60 57 0 4 -13 7 -29 7 -16 0 -39 9 -52 21 -23 19 -23 20 -2 10 37
-19 96 -12 147 15 51 27 135 105 137 127 3 29 -4 53 -17 60 -8 5 -12 12 -9 18
4 5 -19 9 -55 9 -34 0 -59 4 -56 9 10 15 -17 17 -74 6z m-630 -625 c-1 -18
-50 80 -50 100 0 17 8 7 25 -35 14 -33 25 -62 25 -65z"/>
<path d="M1935 2290 c28 -11 55 -20 60 -19 15 0 -78 38 -95 38 -8 0 8 -9 35
-19z"/>
<path d="M1984 1668 c-47 -34 -99 -47 -195 -48 -78 0 -190 -27 -291 -70 l-73
-30 -44 45 c-65 67 -103 71 -223 19 -127 -54 -202 -39 -278 57 l-40 51 0 -101
c0 -111 -5 -120 -53 -102 -26 10 -27 10 -27 -27 0 -34 -7 -45 -60 -95 -35 -33
-60 -66 -60 -78 0 -13 -11 -25 -34 -34 -32 -14 -35 -19 -40 -67 -3 -29 -8
-215 -11 -413 -3 -198 -8 -402 -11 -452 -5 -73 -4 -93 7 -93 7 0 166 36 353
80 545 127 535 125 549 107 60 -79 303 -22 363 84 6 12 126 44 416 113 411 98
508 123 508 131 0 4 -284 531 -432 803 l-39 72 -52 0 c-73 0 -126 17 -159 51
-16 16 -30 29 -31 28 -1 0 -21 -14 -43 -31z m71 -65 c190 -335 401 -730 395
-737 -3 -2 -61 -12 -130 -21 -135 -18 -384 -78 -494 -119 -38 -14 -91 -42
-117 -61 -27 -19 -54 -36 -60 -38 -12 -2 -18 23 -132 508 -89 383 -86 350 -38
374 116 59 252 91 391 91 40 0 68 7 100 25 25 13 48 24 52 25 3 0 18 -21 33
-47z m86 -49 c49 -80 389 -723 389 -734 0 -6 -8 -10 -17 -11 -10 0 -13 -3 -7
-5 6 -3 20 -1 31 3 20 8 17 16 -59 158 -134 254 -286 548 -303 588 -20 48 1
52 29 4 114 -199 393 -732 398 -761 3 -17 -38 -28 -401 -115 l-405 -96 -8 -31
c-16 -63 -97 -103 -229 -111 -73 -5 -76 -4 -97 21 -11 15 -22 31 -24 37 -2 5
-125 -20 -278 -56 -284 -68 -492 -115 -511 -115 -7 0 -8 105 -3 368 4 202 8
374 10 382 1 8 3 62 3 119 1 57 4 102 7 98 4 -3 6 -214 5 -468 -2 -441 -1
-461 16 -456 10 3 92 36 183 75 177 74 265 101 435 132 132 24 176 25 261 4
l65 -17 97 46 c107 50 222 87 352 111 97 18 390 66 404 66 5 0 7 2 4 5 -12 12
-373 -49 -536 -91 -95 -24 -178 -44 -185 -44 -23 1 83 50 170 80 105 35 297
74 446 92 97 11 108 14 103 31 -2 10 -95 181 -205 381 -111 199 -201 366 -201
370 0 21 29 -7 61 -60z m-1240 30 c18 -22 68 -46 113 -55 32 -6 58 0 135 28
121 43 162 45 202 7 35 -34 49 -76 125 -395 87 -367 114 -499 100 -499 -7 0
-51 13 -99 29 -187 63 -283 62 -462 -9 -120 -46 -135 -48 -136 -17 0 12 -2 31
-4 41 -2 11 -7 214 -11 453 -6 385 -5 433 8 433 9 0 21 -7 29 -16z m-60 -225
c3 -41 7 -153 8 -249 1 -96 4 -184 6 -195 2 -11 4 -80 4 -152 1 -129 2 -133
22 -133 12 0 78 19 148 42 119 40 132 42 241 42 86 0 130 -5 174 -20 l59 -19
-164 0 -164 0 -192 -67 -192 -66 -3 81 c-8 151 -9 823 -1 830 3 4 16 1 27 -7
17 -11 22 -27 27 -87z m-81 -353 c0 -205 3 -400 6 -433 l7 -60 36 13 c20 7 88
31 151 54 180 64 255 80 367 79 150 -2 167 -14 28 -22 -141 -7 -331 -54 -485
-118 -52 -22 -103 -43 -112 -46 -17 -5 -18 21 -18 456 0 306 3 460 10 456 6
-4 10 -141 10 -379z m-39 -74 c0 -224 3 -423 7 -444 l7 -36 133 49 c227 84
381 121 495 118 36 -1 32 -3 -30 -14 -159 -29 -355 -92 -542 -174 -52 -23 -96
-41 -98 -41 -6 0 -3 897 3 929 18 86 24 -17 25 -387z"/>
</g>
</svg>
